<svg width="253" height="123" viewBox="0 0 253 123" fill="none" xmlns="http://www.w3.org/2000/svg">
<path d="M47.1213 102.394H18.3425V45.3325H95.9819V46.6006H19.6075V101.126H47.1213V102.394Z" fill="#012E67"/>
<path d="M234.658 102.394H203.981V101.126H233.393V46.6006H157.145V45.3325H234.658V102.394Z" fill="#012E67"/>
<path d="M56.0079 102.267H53.0351L52.4026 103.694H51.8334L54.2685 98.3682H54.8377L57.2729 103.694H56.672L56.0079 102.267ZM55.7865 101.792L54.5215 98.9388L53.2565 101.792H55.7865Z" fill="#012E67"/>
<path d="M64.6415 103.187V104.867H64.1039V103.662H59.455V104.867H58.9174V103.187H59.1704C59.5182 103.155 59.7712 102.901 59.8977 102.362C60.0242 101.824 60.1191 101.063 60.1507 100.08L60.214 98.3682H63.7876V103.218H64.6415V103.187ZM60.5302 102.141C60.4354 102.68 60.2772 103.028 60.0242 103.187H63.2816V98.8437H60.7516L60.72 100.143C60.6884 100.936 60.6251 101.602 60.5302 102.141Z" fill="#012E67"/>
<path d="M71.3144 101.38C71.5041 101.602 71.599 101.887 71.599 102.236C71.599 102.711 71.4409 103.06 71.1246 103.314C70.8084 103.567 70.334 103.694 69.7015 103.694H67.3612V98.3682H69.575C70.1442 98.3682 70.587 98.495 70.9032 98.7169C71.2195 98.9388 71.3776 99.2875 71.3776 99.7313C71.3776 100.017 71.3144 100.27 71.1562 100.492C70.9981 100.682 70.7767 100.841 70.5237 100.968C70.84 100.999 71.1246 101.158 71.3144 101.38ZM67.8672 100.777H69.4801C69.8912 100.777 70.2075 100.682 70.4289 100.524C70.6502 100.365 70.7451 100.112 70.7451 99.7947C70.7451 99.4777 70.6502 99.2241 70.4289 99.0656C70.2075 98.9071 69.8912 98.812 69.4801 98.812H67.8672V100.777ZM71.0614 102.204C71.0614 101.538 70.6186 101.19 69.7015 101.19H67.8989V103.218H69.7015C70.587 103.218 71.0614 102.901 71.0614 102.204Z" fill="#012E67"/>
<path d="M75.4256 103.377C74.9829 103.155 74.6666 102.806 74.4136 102.394C74.1606 101.982 74.0658 101.507 74.0658 100.999C74.0658 100.492 74.1923 100.017 74.4136 99.6046C74.6666 99.1925 74.9829 98.8755 75.4256 98.6219C75.8684 98.3683 76.3427 98.2732 76.8487 98.2732C77.3864 98.2732 77.8607 98.4 78.2719 98.6219C78.683 98.8438 79.0309 99.1925 79.2839 99.6046C79.5369 100.017 79.6634 100.492 79.6634 100.999C79.6634 101.507 79.5369 101.982 79.2839 102.394C79.0309 102.806 78.7146 103.123 78.2719 103.377C77.8607 103.599 77.3864 103.726 76.8487 103.726C76.3427 103.726 75.8367 103.599 75.4256 103.377ZM77.9872 102.933C78.3351 102.743 78.5881 102.489 78.7779 102.141C78.9676 101.792 79.0625 101.412 79.0625 100.999C79.0625 100.587 78.9676 100.207 78.7779 99.8582C78.5881 99.5095 78.3351 99.2559 77.9872 99.0657C77.6394 98.8755 77.2599 98.7804 76.8487 98.7804C76.4376 98.7804 76.0581 98.8755 75.7102 99.0657C75.3624 99.2559 75.1094 99.5095 74.9196 99.8582C74.7299 100.207 74.635 100.587 74.635 100.999C74.635 101.412 74.7299 101.792 74.9196 102.141C75.1094 102.489 75.394 102.743 75.7102 102.933C76.0581 103.123 76.4376 103.219 76.8487 103.219C77.2599 103.219 77.6394 103.123 77.9872 102.933Z" fill="#012E67"/>
<path d="M84.249 101.221H83.0472V103.662H82.5096V98.3364H83.0472V100.714H84.249L86.0516 98.3364H86.6525L84.6917 100.936L86.779 103.662H86.1465L84.249 101.221Z" fill="#012E67"/>
<path d="M92.5031 102.267H89.5304L88.8979 103.694H88.3286L90.7637 98.3682H91.333L93.7681 103.694H93.1672L92.5031 102.267ZM92.3134 101.792L91.0484 98.9388L89.7834 101.792H92.3134Z" fill="#012E67"/>
<path d="M99.4923 98.8437H97.6264V103.694H97.0571V98.8437H95.1912V98.3682H99.4923V98.8437Z" fill="#012E67"/>
<path d="M102.813 103.377C102.402 103.155 102.054 102.806 101.832 102.394C101.579 101.982 101.485 101.507 101.485 100.999C101.485 100.492 101.611 100.017 101.832 99.6046C102.085 99.1925 102.402 98.8755 102.845 98.6219C103.256 98.4 103.73 98.2732 104.268 98.2732C104.647 98.2732 105.027 98.3366 105.375 98.4634C105.722 98.5902 106.007 98.7804 106.228 99.034L105.88 99.3827C105.469 98.9706 104.932 98.7487 104.299 98.7487C103.888 98.7487 103.509 98.8438 103.161 99.034C102.813 99.2242 102.56 99.4778 102.338 99.8265C102.149 100.175 102.054 100.524 102.054 100.968C102.054 101.38 102.149 101.76 102.338 102.109C102.528 102.458 102.813 102.711 103.161 102.902C103.509 103.092 103.888 103.187 104.299 103.187C104.932 103.187 105.469 102.965 105.88 102.553L106.228 102.902C106.007 103.155 105.722 103.345 105.375 103.472C105.027 103.599 104.679 103.662 104.268 103.662C103.698 103.726 103.224 103.599 102.813 103.377Z" fill="#012E67"/>
<path d="M112.522 100.682C112.838 100.968 113.028 101.38 113.028 101.919C113.028 102.489 112.838 102.933 112.49 103.218C112.142 103.504 111.636 103.662 110.972 103.662H108.853V98.3364H109.423V100.238H111.099C111.699 100.27 112.205 100.397 112.522 100.682ZM112.079 102.901C112.332 102.679 112.459 102.362 112.459 101.95C112.459 101.126 111.952 100.714 110.94 100.714H109.423V103.218H110.972C111.446 103.218 111.826 103.123 112.079 102.901Z" fill="#012E67"/>
<path d="M117.519 101.221H116.317V103.662H115.779V98.3364H116.317V100.714H117.519L119.321 98.3364H119.922L117.961 100.936L120.049 103.662H119.416L117.519 101.221Z" fill="#012E67"/>
<path d="M126.184 103.187V103.662H122.42V98.3364H126.057V98.8119H122.99V100.714H125.741V101.19H122.99V103.155H126.184V103.187Z" fill="#012E67"/>
<path d="M133.363 103.377C132.92 103.155 132.604 102.806 132.351 102.394C132.098 101.982 132.003 101.507 132.003 100.999C132.003 100.492 132.129 100.017 132.351 99.6046C132.604 99.1925 132.92 98.8755 133.363 98.6219C133.805 98.4 134.28 98.2732 134.786 98.2732C135.292 98.2732 135.798 98.4 136.209 98.6219C136.62 98.8438 136.968 99.1925 137.221 99.6046C137.474 100.017 137.6 100.492 137.6 100.999C137.6 101.507 137.474 101.982 137.221 102.394C136.968 102.806 136.652 103.123 136.209 103.377C135.798 103.599 135.323 103.726 134.786 103.726C134.248 103.726 133.774 103.599 133.363 103.377ZM135.924 102.933C136.272 102.743 136.525 102.489 136.715 102.141C136.905 101.792 137 101.412 137 100.999C137 100.587 136.905 100.207 136.715 99.8582C136.525 99.5095 136.272 99.2559 135.924 99.0657C135.576 98.8755 135.197 98.7804 134.786 98.7804C134.375 98.7804 133.995 98.8755 133.647 99.0657C133.299 99.2559 133.046 99.5095 132.857 99.8582C132.667 100.207 132.572 100.587 132.572 100.999C132.572 101.412 132.667 101.792 132.857 102.141C133.046 102.489 133.331 102.743 133.647 102.933C133.995 103.123 134.375 103.219 134.786 103.219C135.197 103.219 135.576 103.123 135.924 102.933Z" fill="#012E67"/>
<path d="M140.447 98.3682H144.336V98.8437H141.016V100.587H142.755C143.388 100.587 143.862 100.714 144.178 100.968C144.495 101.221 144.653 101.602 144.653 102.109C144.653 102.616 144.463 103.028 144.115 103.282C143.767 103.567 143.261 103.694 142.597 103.694H140.415V98.3682H140.447ZM142.597 103.218C143.103 103.218 143.451 103.123 143.704 102.933C143.957 102.743 144.083 102.458 144.083 102.109C144.083 101.728 143.957 101.475 143.704 101.285C143.451 101.094 143.071 100.999 142.597 100.999H140.984V103.218H142.597Z" fill="#012E67"/>
<path d="M147.499 98.1146C147.562 98.178 147.625 98.3048 147.625 98.3999C147.625 98.4633 147.625 98.5267 147.594 98.5901C147.562 98.6535 147.562 98.7486 147.531 98.8437L147.214 99.8899H146.835L147.088 98.7803C146.993 98.7486 146.93 98.7169 146.898 98.6535C146.835 98.5901 146.835 98.495 146.835 98.3999C146.835 98.2731 146.867 98.178 146.961 98.1146C147.025 98.0512 147.12 97.9878 147.246 97.9878C147.341 97.9878 147.436 98.0195 147.499 98.1146Z" fill="#012E67"/>
<path d="M151.262 103.377C150.851 103.155 150.535 102.806 150.314 102.394C150.092 101.982 149.966 101.507 149.966 100.999C149.966 100.492 150.092 100.017 150.314 99.6046C150.535 99.1925 150.851 98.8755 151.262 98.6219C151.673 98.4 152.116 98.2732 152.622 98.2732C153.033 98.2732 153.413 98.3366 153.761 98.4634C154.109 98.5902 154.393 98.7804 154.615 99.034L154.267 99.3827C153.856 98.9706 153.318 98.7487 152.622 98.7487C152.243 98.7487 151.895 98.8438 151.61 99.0023C151.294 99.1925 151.041 99.4144 150.851 99.7314C150.662 100.048 150.567 100.397 150.535 100.778H153.286V101.253H150.567C150.598 101.634 150.725 101.951 150.915 102.236C151.104 102.521 151.357 102.743 151.642 102.933C151.958 103.092 152.274 103.187 152.654 103.187C153.318 103.187 153.856 102.965 154.298 102.553L154.646 102.902C154.425 103.155 154.14 103.345 153.792 103.472C153.444 103.599 153.065 103.662 152.654 103.662C152.116 103.726 151.673 103.599 151.262 103.377Z" fill="#012E67"/>
<path d="M162.047 103.187V104.867H161.509V103.662H156.86V104.867H156.322V103.187H156.575C156.923 103.155 157.176 102.901 157.303 102.362C157.429 101.824 157.524 101.063 157.556 100.08L157.619 98.3682H161.193V103.218H162.047V103.187ZM157.904 102.141C157.809 102.68 157.651 103.028 157.398 103.187H160.655V98.8437H158.125L158.093 100.143C158.093 100.936 158.03 101.602 157.904 102.141Z" fill="#012E67"/>
<path d="M169.162 98.3682V103.694H168.593V101.221H165.272V103.694H164.703V98.3682H165.272V100.746H168.593V98.3682H169.162Z" fill="#012E67"/>
<path d="M175.867 102.267H172.894L172.261 103.694H171.692L174.127 98.3682H174.697L177.132 103.694H176.531L175.867 102.267ZM175.645 101.792L174.38 98.9388L173.115 101.792H175.645Z" fill="#012E67"/>
<path d="M184.058 98.3682V103.694H183.488V101.221H180.168V103.694H179.63V98.3682H180.199V100.746H183.52V98.3682H184.058Z" fill="#012E67"/>
<path d="M191.806 98.3682V103.694H191.236V101.221H187.916V103.694H187.347V98.3682H187.916V100.746H191.236V98.3682H191.806Z" fill="#012E67"/>
<path d="M198.89 98.3682V103.694H198.32V102.077H196.739C196.676 102.077 196.581 102.077 196.423 102.077L195.316 103.694H194.715L195.917 101.982C195.537 101.855 195.221 101.665 195.031 101.348C194.81 101.063 194.715 100.682 194.715 100.27C194.715 99.6679 194.905 99.1924 195.284 98.8754C195.664 98.5584 196.17 98.3682 196.802 98.3682H198.89ZM195.664 101.221C195.917 101.443 196.296 101.57 196.771 101.57H198.32V98.812H196.834C196.328 98.812 195.949 98.9388 195.696 99.1607C195.411 99.3826 195.284 99.7313 195.284 100.207C195.284 100.651 195.411 100.999 195.664 101.221Z" fill="#012E67"/>
<path d="M35.926 73.8634V73.6098L37.191 72.9758L37.5072 64.6701L36.179 64.0361V63.7825H39.5629L42.7886 71.2956L46.0144 63.7825H49.2401V64.0361L47.9435 64.5433L48.1965 72.9441L49.3034 73.5781V73.8317H45.1605V73.5781L46.3306 72.9758L46.1725 65.6528L42.6937 73.9268H41.9031L38.3927 65.7479L38.203 73.0075L39.4996 73.6098V73.8634H35.926Z" fill="#012E67"/>
<path d="M50.4419 73.8636V73.61L51.3906 73.1028L55.3121 63.751H56.3874L60.2773 73.0711L61.3209 73.61V73.8636H56.925V73.61L58.2533 73.0711L57.178 70.4082H53.5411L52.4659 73.0711L53.7309 73.61V73.8636H50.4419ZM53.889 69.6157H56.8301L55.3438 65.97L53.889 69.6157Z" fill="#012E67"/>
<path d="M62.4594 73.8634V73.6098L63.7244 72.9758V64.6701L62.4594 64.0361V63.7825H66.9185V64.0361L65.6535 64.6701V72.9758L66.9185 73.6098V73.8634H62.4594ZM65.6535 68.7595L69.828 64.575L68.6895 64.0361V63.7825H72.105V64.0361L71.093 64.4482L67.3929 68.0621L71.852 73.166L72.864 73.5781V73.8317H69.9861L65.6535 68.7595Z" fill="#012E67"/>
<path d="M78.5249 74.0221C77.4813 74.0221 76.5641 73.8002 75.7735 73.3881C74.9829 72.9759 74.4136 72.3736 73.9709 71.6445C73.5597 70.8837 73.3384 70.0594 73.3384 69.1084C73.3384 68.3793 73.4965 67.6819 73.7811 67.0161C74.0657 66.3504 74.4769 65.7798 74.9829 65.3043C75.4889 64.7971 76.0581 64.4167 76.7223 64.1314C77.3548 63.846 78.0505 63.7192 78.7779 63.7192C79.2839 63.7192 79.7266 63.7509 80.1061 63.8143C80.454 63.8777 80.7702 63.9728 81.0549 64.068C81.3395 64.1631 81.6241 64.2899 81.9088 64.4484L82.0352 67.2064H81.7506L80.5489 65.0824C80.2326 64.8605 79.948 64.702 79.695 64.6069C79.442 64.5118 79.1574 64.4484 78.8095 64.4484C78.1454 64.4484 77.5445 64.6386 77.0385 64.9873C76.5009 65.3677 76.0897 65.8749 75.8051 66.5089C75.5205 67.143 75.3624 67.9355 75.3624 68.7914C75.3624 69.7107 75.5205 70.5033 75.8051 71.169C76.0897 71.8347 76.5009 72.3419 77.0069 72.6906C77.5129 73.0393 78.0821 73.2296 78.683 73.2296C79.1258 73.2296 79.5369 73.1661 79.8531 73.0393C80.1694 72.9125 80.4856 72.7857 80.7702 72.5955L81.9404 70.7252H82.1934L82.0036 73.2296C81.5925 73.4515 81.0865 73.6417 80.5489 73.8002C79.9796 73.9587 79.3155 74.0221 78.5249 74.0221Z" fill="#012E67"/>
<path d="M84.1541 73.8636V73.61L85.4191 72.976V64.6703L84.1541 64.0363V63.7827H88.5184V64.0363L87.3166 64.6703V71.2324L92.0604 65.3043V64.6386L90.8586 64.0046V63.751H95.2229V64.0046L93.9895 64.6386V72.9443L95.2229 73.5783V73.8319H90.8586V73.5783L92.0604 72.9443V66.4773L87.3166 72.4053V72.976L88.5184 73.61V73.8636H84.1541Z" fill="#012E67"/>
<path d="M96.7725 73.8634V73.6098L98.0375 72.9758L98.3537 64.6701L97.0255 64.0361V63.7825H100.409L103.635 71.2956L106.861 63.7825H110.087V64.0361L108.79 64.5433L109.043 72.9441L110.15 73.5781V73.8317H106.007V73.5781L107.177 72.9758L107.019 65.6528L103.509 73.9268H102.718L99.2076 65.7479L99.0179 73.0075L100.314 73.6098V73.8634H96.7725Z" fill="#012E67"/>
<path d="M121.725 68.7595L117.645 73.8634H114.894V73.6098L115.969 73.166L120.017 68.1889L116.38 64.5116L115.241 64.0678V63.8142H118.847V64.0678L117.74 64.6067L121.725 68.7595ZM120.523 73.8634V73.6098L121.725 72.9758V64.6701L120.523 64.0361V63.7825H124.855V64.0361L123.654 64.6701V72.9758L124.855 73.6098V73.8634H120.523ZM123.654 68.7595L127.639 64.6067L126.532 64.0678V63.8142H130.042V64.0678L128.872 64.5116L125.456 68.0621L129.663 73.1977L130.643 73.6098V73.8634H127.797L123.654 68.7595Z" fill="#012E67"/>
<path d="M135.387 73.0394C135.039 73.4832 134.691 73.7369 134.375 73.8637C134.058 73.9905 133.742 74.0222 133.457 74.0222C133.236 74.0222 133.078 73.9905 133.046 73.9271C132.983 73.8637 132.951 73.7369 132.951 73.5784V72.5322L133.015 72.4688H133.268C133.774 72.4688 134.185 72.4054 134.501 72.2469C134.817 72.0884 135.102 71.8348 135.355 71.4861L131.686 64.6704L130.548 64.0681V63.8145H134.881V64.0681L133.616 64.6387L136.24 69.5523H136.462L139.023 64.607L137.79 64.0681V63.8145H141.016V64.0681L140.099 64.5753L136.873 70.6619C136.652 71.1057 136.399 71.5495 136.114 71.9933C135.861 72.4054 135.608 72.7541 135.387 73.0394Z" fill="#012E67"/>
<path d="M141.996 73.8634V73.6098L143.261 72.9758V64.6701L141.996 64.0361V63.7825H146.708C147.91 63.7825 148.859 64.0044 149.586 64.4165C150.314 64.8286 150.661 65.526 150.661 66.4771C150.661 67.0477 150.472 67.5549 150.092 67.967C149.713 68.4108 149.207 68.7278 148.543 68.9814C147.879 69.235 147.151 69.3618 146.329 69.3618H145.159V72.9441L146.645 73.5781V73.8317H141.996V73.8634ZM145.159 64.6701V68.6327H146.139C146.93 68.6327 147.562 68.4425 148.037 68.0621C148.511 67.6817 148.732 67.2379 148.732 66.6673C148.732 65.9698 148.511 65.4309 148.037 65.1456C147.562 64.8603 146.93 64.6701 146.044 64.6701H145.159Z" fill="#012E67"/>
<path d="M150.598 73.8636V73.61L151.547 73.1028L155.468 63.751H156.544L160.434 73.0711L161.477 73.61V73.8636H157.113V73.61L158.441 73.0711L157.366 70.4082H153.697L152.622 73.0711L153.887 73.61V73.8636H150.598ZM154.045 69.6157H156.986L155.5 65.97L154.045 69.6157Z" fill="#012E67"/>
<path d="M162.616 73.8634V73.6098L163.881 72.9758V64.6701L162.616 64.0361V63.7825H167.075C167.771 63.7825 168.403 63.8776 168.972 64.0361C169.542 64.1946 169.953 64.4482 170.301 64.7969C170.617 65.1139 170.775 65.5577 170.775 66.0649C170.775 66.5722 170.585 67.0477 170.206 67.4915C169.826 67.9353 169.32 68.2206 168.625 68.4108C169.573 68.5376 170.301 68.8229 170.838 69.2667C171.376 69.7106 171.66 70.2495 171.66 70.9469C171.66 71.5175 171.471 71.993 171.123 72.4368C170.743 72.8807 170.269 73.2294 169.605 73.483C168.972 73.7366 168.245 73.8634 167.423 73.8634H162.616ZM166.474 64.6701H165.778V68.3157H166.537C167.233 68.3157 167.771 68.1572 168.15 67.8402C168.53 67.5232 168.719 67.0794 168.719 66.5405C168.751 65.2724 167.992 64.6701 166.474 64.6701ZM167.043 69.0765H165.81V73.0392H167.17C167.929 73.0392 168.53 72.849 168.972 72.4685C169.415 72.0881 169.637 71.6126 169.637 71.042C169.637 70.3763 169.415 69.8691 168.972 69.552C168.466 69.235 167.834 69.0765 167.043 69.0765Z" fill="#012E67"/>
<path d="M178.112 73.8637V73.6101L179.345 72.976V64.6704H176.056V65.5897C176.056 66.7943 176.025 67.8405 175.962 68.7281C175.898 69.6157 175.803 70.3449 175.708 70.9472C175.614 71.5495 175.456 72.0567 175.266 72.4371C175.076 72.8809 174.855 73.2296 174.633 73.4515C174.38 73.6735 174.159 73.832 173.906 73.8954C173.653 73.9588 173.463 74.0222 173.242 74.0222C173.02 74.0222 172.862 73.9905 172.831 73.9271C172.767 73.8637 172.736 73.7369 172.736 73.5784V72.5322L172.799 72.4688H172.957C173.748 72.4688 174.285 71.8982 174.602 70.757C174.918 69.6157 175.076 67.9039 175.076 65.6214V64.7021L173.843 64.0681V63.8145H182.54V64.0681L181.275 64.7021V73.0077L182.54 73.6418V73.8954H178.112V73.8637Z" fill="#012E67"/>
<path d="M188.801 73.8634H184.121V73.6098L185.386 72.9758V64.6701L184.121 64.0361V63.7825H188.865V64.0361L187.283 64.6701V67.9036H188.801C189.655 67.9036 190.414 68.0304 191.047 68.2523C191.679 68.4742 192.185 68.8229 192.565 69.235C192.944 69.6472 193.102 70.1544 193.102 70.7567C193.102 71.359 192.912 71.8979 192.565 72.3734C192.217 72.849 191.711 73.1977 191.047 73.4513C190.414 73.7366 189.655 73.8634 188.801 73.8634ZM188.453 68.7595H187.283V73.0392H188.58C189.434 73.0392 190.066 72.849 190.477 72.4368C190.92 72.0247 191.11 71.5175 191.11 70.8835C191.11 70.1544 190.888 69.6155 190.446 69.2667C190.035 68.918 189.371 68.7595 188.453 68.7595Z" fill="#012E67"/>
<path d="M199.933 74.022C199.206 74.022 198.51 73.8952 197.878 73.6416C197.245 73.388 196.708 73.0076 196.233 72.5638C195.759 72.0883 195.411 71.5494 195.158 70.9153C194.905 70.2813 194.778 69.5839 194.778 68.8548C194.778 68.1256 194.905 67.4282 195.158 66.7942C195.411 66.1602 195.79 65.6213 196.233 65.1457C196.708 64.6702 197.245 64.3215 197.878 64.0679C198.51 63.8143 199.174 63.6875 199.933 63.6875C200.692 63.6875 201.356 63.8143 201.989 64.0679C202.621 64.3215 203.159 64.7019 203.633 65.1457C204.108 65.6213 204.456 66.1602 204.709 66.7942C204.962 67.4282 205.088 68.1256 205.088 68.8548C205.088 69.5839 204.962 70.2813 204.709 70.9153C204.456 71.5494 204.076 72.0883 203.633 72.5638C203.159 73.0393 202.621 73.388 201.989 73.6416C201.356 73.8952 200.661 74.022 199.933 74.022ZM200.186 73.2295C200.756 73.2295 201.262 73.071 201.673 72.754C202.115 72.437 202.432 71.9615 202.685 71.3908C202.938 70.7885 203.064 70.1228 203.064 69.2986C203.064 68.3159 202.906 67.4599 202.621 66.7308C202.337 66.0017 201.926 65.4311 201.42 65.0189C200.914 64.6068 200.344 64.4166 199.712 64.4166C199.143 64.4166 198.668 64.5751 198.225 64.8921C197.783 65.2091 197.435 65.653 197.182 66.2553C196.929 66.8576 196.802 67.5233 196.802 68.3476C196.802 69.3303 196.961 70.1862 197.245 70.9153C197.561 71.6445 197.972 72.2151 198.478 72.6272C198.984 73.0393 199.554 73.2295 200.186 73.2295Z" fill="#012E67"/>
<path d="M206.764 73.8634V73.6098L208.029 72.9758V64.6701L206.764 64.0361V63.7825H211.223C211.919 63.7825 212.552 63.8776 213.121 64.0361C213.69 64.1946 214.101 64.4482 214.449 64.7969C214.765 65.1139 214.924 65.5577 214.924 66.0649C214.924 66.5722 214.734 67.0477 214.354 67.4915C213.975 67.9353 213.469 68.2206 212.773 68.4108C213.722 68.5376 214.449 68.8229 214.987 69.2667C215.524 69.7106 215.809 70.2495 215.809 70.9469C215.809 71.5175 215.619 71.993 215.271 72.4368C214.892 72.8807 214.418 73.2294 213.753 73.483C213.121 73.7366 212.394 73.8634 211.571 73.8634H206.764ZM210.623 64.6701H209.927V68.3157H210.686C211.382 68.3157 211.919 68.1572 212.299 67.8402C212.678 67.5232 212.868 67.0794 212.868 66.5405C212.9 65.2724 212.141 64.6701 210.623 64.6701ZM211.16 69.0765H209.927V73.0392H211.287C212.046 73.0392 212.647 72.849 213.089 72.4685C213.532 72.0881 213.753 71.6126 213.753 71.042C213.753 70.3763 213.532 69.8691 213.089 69.552C212.615 69.235 211.982 69.0765 211.16 69.0765Z" fill="#012E67"/>
<path d="M103.097 84.0078V83.881L103.73 83.5639V79.4111L103.097 79.0941V78.9673H108.379V79.0941L107.746 79.4111V83.5639L108.379 83.881V84.0078H106.228V83.881L106.798 83.5639V79.3794H104.71V83.5639L105.311 83.881V84.0078H103.097Z" fill="#012E67"/>
<path d="M110.498 84.0077V83.8809L110.972 83.6273L112.933 78.9355H113.47L115.4 83.5956L115.906 83.8809V84.0077H113.723V83.8809L114.388 83.6273L113.85 82.2959H112.016L111.478 83.6273L112.111 83.8809V84.0077H110.498ZM112.205 81.8837H113.692L112.964 80.0768L112.205 81.8837Z" fill="#012E67"/>
<path d="M118.024 84.0077V83.8809L118.657 83.5639V79.4111L118.024 79.0941V78.9673H120.396C120.997 78.9673 121.472 79.0624 121.819 79.2843C122.167 79.5062 122.357 79.8549 122.357 80.3304C122.357 80.6157 122.262 80.8693 122.072 81.0913C121.883 81.3132 121.63 81.4717 121.313 81.5985C120.997 81.7253 120.618 81.7887 120.207 81.7887H119.606V83.5956L120.365 83.9126V84.0395H118.024V84.0077ZM119.606 79.4111V81.4083H120.08C120.491 81.4083 120.807 81.3132 121.029 81.123C121.25 80.9327 121.377 80.7108 121.377 80.4255C121.377 80.0768 121.25 79.8232 121.029 79.6647C120.807 79.5062 120.46 79.4428 120.048 79.4428H119.606V79.4111Z" fill="#012E67"/>
<path d="M125.52 84.0078V83.8809L126.31 83.5639V79.3794H125.172L124.602 80.584H124.476V78.9673H129.093V80.584H128.967L128.397 79.3794H127.259V83.5639L128.05 83.8809V84.0078H125.52Z" fill="#012E67"/>
<path d="M131.339 84.0078V83.8809L131.971 83.5639V79.4111L131.339 79.0941V78.9673H133.521V79.0941L132.92 79.4111V81.1864H135.228V79.4111L134.628 79.0941V78.9673H136.81V79.0941L136.177 79.4111V83.5639L136.81 83.8809V84.0078H134.628V83.8809L135.228 83.5639V81.6302H132.92V83.5639L133.521 83.8809V84.0078H131.339Z" fill="#012E67"/>
<path d="M139.118 84.0077V83.8809L139.751 83.5639V79.4111L139.118 79.0941V78.9673H143.103V80.2987H142.945L142.407 79.4111H140.668V81.2181H141.901L142.312 80.584H142.439V82.2959H142.312L141.901 81.6619H140.668V83.6273H142.597L143.135 82.5495H143.261V84.0395H139.118V84.0077Z" fill="#012E67"/>
<path d="M145.696 84.0077V83.8809L146.329 83.5639V79.4111L145.696 79.0941V78.9673H148.068C148.669 78.9673 149.143 79.0624 149.491 79.2843C149.839 79.5062 150.029 79.8549 150.029 80.3304C150.029 80.6157 149.934 80.8693 149.744 81.0913C149.555 81.3132 149.302 81.4717 148.985 81.5985C148.669 81.7253 148.29 81.7887 147.878 81.7887H147.278V83.5956L148.037 83.9126V84.0395H145.696V84.0077ZM147.309 79.4111V81.4083H147.784C148.195 81.4083 148.511 81.3132 148.732 81.123C148.954 80.9327 149.08 80.7108 149.08 80.4255C149.08 80.0768 148.954 79.8232 148.732 79.6647C148.511 79.5062 148.163 79.4428 147.752 79.4428H147.309V79.4111Z" fill="#012E67"/>
<path d="M152.274 84.0077V83.8809L152.907 83.5639V79.4111L152.274 79.0941V78.9673H154.456V79.0941L153.856 79.4111V82.708L156.228 79.7598V79.4428L155.627 79.1258V78.999H157.809V79.1258L157.176 79.4428V83.5956L157.809 83.9126V84.0395H155.627V83.9126L156.228 83.5956V80.3621L153.856 83.3103V83.5956L154.456 83.9126V84.0395H152.274V84.0077Z" fill="#012E67"/>
<path d="M96.899 84.1346V84.0078L97.5315 83.6908V79.4428L96.899 79.1258V78.999H99.176V79.1258L98.5435 79.4428V83.6908L99.176 84.0078V84.1346H96.899Z" fill="#012E67"/>
<path d="M122.547 53.0993C122.673 52.3702 122.958 51.6728 123.337 51.007C123.685 50.3413 124.16 49.739 124.634 49.1684C125.646 48.0588 126.848 47.1078 128.144 46.3787C128.809 46.03 129.473 45.6813 130.168 45.396C130.516 45.2691 130.864 45.1106 131.212 44.9838L132.287 44.6351L134.406 43.9694C135.102 43.7158 135.798 43.4939 136.462 43.2086C139.182 42.1307 141.775 40.7042 144.147 38.9923C145.348 38.1364 146.487 37.2171 147.594 36.2344C148.701 35.2516 149.744 34.2055 150.725 33.0959C148.922 35.4418 146.835 37.5975 144.431 39.3728C143.261 40.2604 141.996 41.1163 140.7 41.8454C139.403 42.5746 138.075 43.2403 136.683 43.7792C135.987 44.0645 135.292 44.2864 134.596 44.54C133.9 44.7619 133.173 44.9838 132.477 45.174L131.433 45.4911C131.086 45.5862 130.738 45.7447 130.421 45.8715C130.074 45.9983 129.726 46.1251 129.409 46.2836C129.093 46.4421 128.745 46.6006 128.429 46.7591C127.132 47.4248 125.931 48.2807 124.919 49.3269C123.812 50.4364 122.958 51.6728 122.547 53.0993Z" fill="#012E67"/>
<path d="M132.857 42.4795C132.066 43.906 130.706 44.7303 130.137 45.0156C130.042 45.079 129.884 44.9839 129.884 44.8888C129.821 44.2864 129.789 42.6697 130.58 41.2431C131.37 39.8166 132.73 38.9924 133.299 38.7071C133.394 38.6437 133.552 38.7388 133.552 38.8339C133.616 39.4362 133.647 41.0529 132.857 42.4795Z" fill="#012E67"/>
<path d="M133.805 48.7562C132.287 48.1538 131.275 46.9175 130.928 46.4103C130.864 46.3152 130.896 46.1567 131.022 46.125C131.623 45.9982 133.205 45.7446 134.723 46.3152C136.241 46.9175 137.253 48.1538 137.6 48.6611C137.664 48.7562 137.632 48.9147 137.505 48.9464C136.905 49.1049 135.323 49.3585 133.805 48.7562Z" fill="#012E67"/>
<path d="M138.77 46.5055C137.316 46.2519 136.209 45.3009 135.798 44.8887C135.703 44.8253 135.734 44.6668 135.829 44.6351C136.335 44.4132 137.727 43.906 139.182 44.1913C140.636 44.4766 141.743 45.396 142.154 45.8081C142.249 45.8715 142.218 46.03 142.123 46.0617C141.617 46.2836 140.225 46.7908 138.77 46.5055Z" fill="#012E67"/>
<path d="M137.221 40.7043C136.683 42.0991 135.513 42.9868 135.07 43.3038C134.975 43.3672 134.849 43.3038 134.817 43.2087C134.691 42.6697 134.469 41.2115 135.039 39.8167C135.608 38.4218 136.746 37.5342 137.189 37.2172C137.284 37.1538 137.411 37.2172 137.442 37.3123C137.569 37.8829 137.79 39.3411 137.221 40.7043Z" fill="#012E67"/>
<path d="M141.048 39.024C140.573 40.4189 139.466 41.3382 139.055 41.6869C138.96 41.7503 138.834 41.7186 138.802 41.5918C138.676 41.0529 138.391 39.658 138.865 38.2632C139.34 36.8683 140.447 35.949 140.858 35.6003C140.953 35.5369 141.079 35.5686 141.111 35.6954C141.237 36.2343 141.522 37.6292 141.048 39.024Z" fill="#012E67"/>
<path d="M143.546 43.9061C142.154 43.811 140.984 43.0185 140.573 42.6697C140.478 42.6063 140.51 42.4795 140.605 42.4161C141.048 42.1308 142.313 41.4968 143.704 41.5919C145.096 41.687 146.266 42.4795 146.677 42.8282C146.772 42.8916 146.74 43.0184 146.645 43.0819C146.202 43.3672 144.969 44.0012 143.546 43.9061Z" fill="#012E67"/>
<path d="M144.653 37.0269C144.242 38.295 143.261 39.1509 142.882 39.4679C142.818 39.5313 142.692 39.4996 142.66 39.4045C142.534 38.929 142.249 37.661 142.66 36.3929C143.071 35.1249 144.052 34.2689 144.431 33.9519C144.495 33.8885 144.621 33.9202 144.653 34.0153C144.779 34.4908 145.064 35.7906 144.653 37.0269Z" fill="#012E67"/>
<path d="M147.12 41.2431C145.791 41.2114 144.684 40.5457 144.273 40.2604C144.178 40.197 144.178 40.0702 144.273 40.0385C144.684 39.7849 145.823 39.1509 147.151 39.1509C148.479 39.1826 149.586 39.8483 149.997 40.1336C150.092 40.197 150.092 40.3238 149.997 40.3555C149.555 40.6408 148.448 41.2748 147.12 41.2431Z" fill="#012E67"/>
<path d="M150.219 37.9778C149.017 38.168 147.91 37.6925 147.499 37.5023C147.404 37.4706 147.404 37.3438 147.467 37.2804C147.815 36.9634 148.732 36.2343 149.934 36.0441C151.136 35.8539 152.243 36.3294 152.654 36.5196C152.749 36.5513 152.749 36.6781 152.685 36.7415C152.338 37.0585 151.42 37.7876 150.219 37.9778Z" fill="#012E67"/>
<path d="M147.531 34.364C147.278 35.5687 146.487 36.4563 146.139 36.7733C146.076 36.8367 145.949 36.805 145.918 36.7416C145.76 36.3295 145.38 35.1883 145.633 33.9836C145.886 32.779 146.677 31.8914 147.025 31.5744C147.088 31.511 147.214 31.5427 147.246 31.6061C147.404 32.0499 147.784 33.1911 147.531 34.364Z" fill="#012E67"/>
<path d="M150.377 31.7961C150.187 33.0007 149.428 33.92 149.112 34.2688C149.049 34.3322 148.922 34.3322 148.89 34.2371C148.701 33.8249 148.258 32.7154 148.479 31.5108C148.669 30.3061 149.428 29.3868 149.744 29.0381C149.808 28.9747 149.934 28.9747 149.966 29.0698C150.156 29.4502 150.567 30.5914 150.377 31.7961Z" fill="#012E67"/>
<path d="M152.844 35.0932C151.674 35.4102 150.503 35.0615 150.092 34.9347C149.997 34.903 149.966 34.8079 150.029 34.7128C150.345 34.364 151.168 33.5398 152.369 33.2228C153.539 32.9058 154.71 33.2545 155.121 33.3813C155.216 33.413 155.247 33.5081 155.184 33.6032C154.868 33.9519 154.014 34.8079 152.844 35.0932Z" fill="#012E67"/>
<path d="M153.666 30.8769C152.749 32.0181 151.515 32.5888 151.041 32.779C150.946 32.8107 150.851 32.7473 150.883 32.6522C150.978 32.1449 151.262 30.8135 152.18 29.6723C153.097 28.531 154.33 27.9604 154.804 27.7702C154.899 27.7385 154.994 27.8019 154.963 27.897C154.868 28.4042 154.551 29.7674 153.666 30.8769Z" fill="#012E67"/>
<path d="M130.516 53.0994C130.105 51.6728 129.251 50.4365 128.239 49.3904C127.227 48.3442 125.994 47.52 124.729 46.8226C124.413 46.6641 124.065 46.5056 123.749 46.3471C123.432 46.1886 123.084 46.0617 122.737 45.9349C122.389 45.8081 122.072 45.6496 121.725 45.5545L120.681 45.2375C119.985 45.0156 119.258 44.8254 118.562 44.6035C117.866 44.3499 117.139 44.128 116.475 43.8427C115.083 43.3038 113.755 42.638 112.458 41.9089C111.162 41.1798 109.928 40.3556 108.727 39.4362C106.355 37.6293 104.236 35.5053 102.433 33.1594C103.445 34.2373 104.457 35.3151 105.564 36.2978C106.671 37.2806 107.81 38.1999 109.011 39.0558C111.415 40.7677 113.976 42.1942 116.696 43.2721C117.36 43.5574 118.056 43.7793 118.752 44.0329L120.871 44.6986L121.946 45.0473C122.294 45.1424 122.642 45.3326 122.99 45.4594C123.685 45.713 124.349 46.0934 125.014 46.4422C126.31 47.1713 127.512 48.1223 128.524 49.2319C128.998 49.8025 129.473 50.4048 129.821 51.0705C130.105 51.6728 130.421 52.3703 130.516 53.0994Z" fill="#012E67"/>
<path d="M120.207 42.4795C120.997 43.906 122.357 44.7303 122.926 45.0156C123.021 45.079 123.179 44.9839 123.179 44.8888C123.243 44.2864 123.274 42.6697 122.484 41.2431C121.693 39.8166 120.333 38.9924 119.764 38.7071C119.669 38.6437 119.511 38.7388 119.511 38.8339C119.479 39.4362 119.416 41.0529 120.207 42.4795Z" fill="#012E67"/>
<path d="M119.289 48.7562C120.807 48.1538 121.819 46.9175 122.167 46.4103C122.231 46.3152 122.199 46.1567 122.072 46.125C121.472 45.9982 119.89 45.7446 118.372 46.3152C116.854 46.9175 115.842 48.1538 115.495 48.6611C115.431 48.7562 115.463 48.9147 115.589 48.9464C116.159 49.1049 117.74 49.3585 119.289 48.7562Z" fill="#012E67"/>
<path d="M114.293 46.5055C115.748 46.2519 116.854 45.3009 117.266 44.8887C117.36 44.8253 117.329 44.6668 117.234 44.6351C116.728 44.4132 115.336 43.906 113.882 44.1913C112.427 44.4449 111.32 45.396 110.909 45.8081C110.814 45.8715 110.846 46.03 110.94 46.0617C111.478 46.2836 112.838 46.7908 114.293 46.5055Z" fill="#012E67"/>
<path d="M115.842 40.7043C116.38 42.0991 117.55 42.9868 117.993 43.3038C118.088 43.3672 118.214 43.3038 118.246 43.2087C118.372 42.6697 118.594 41.2115 118.024 39.8167C117.487 38.4218 116.317 37.5342 115.874 37.2172C115.779 37.1538 115.653 37.2172 115.621 37.3123C115.526 37.8829 115.305 39.3411 115.842 40.7043Z" fill="#012E67"/>
<path d="M112.047 39.024C112.522 40.4189 113.629 41.3382 114.04 41.6869C114.135 41.7503 114.261 41.7186 114.293 41.5918C114.419 41.0529 114.704 39.658 114.23 38.2632C113.755 36.8683 112.648 35.949 112.237 35.6003C112.142 35.5369 112.016 35.5686 111.984 35.6954C111.826 36.2343 111.541 37.6292 112.047 39.024Z" fill="#012E67"/>
<path d="M109.517 43.9061C110.909 43.811 112.079 43.0185 112.49 42.6697C112.585 42.6063 112.553 42.4795 112.459 42.4161C112.016 42.1308 110.751 41.4968 109.359 41.5919C107.968 41.687 106.798 42.4795 106.387 42.8282C106.292 42.8916 106.323 43.0184 106.418 43.0819C106.893 43.3672 108.126 44.0012 109.517 43.9061Z" fill="#012E67"/>
<path d="M108.442 37.0269C108.853 38.295 109.834 39.1509 110.213 39.4679C110.276 39.5313 110.403 39.4996 110.435 39.4045C110.561 38.929 110.846 37.661 110.435 36.3929C110.023 35.1249 109.043 34.2689 108.664 33.9519C108.6 33.8885 108.474 33.9202 108.442 34.0153C108.284 34.4908 108.031 35.7906 108.442 37.0269Z" fill="#012E67"/>
<path d="M105.975 41.2431C107.304 41.2114 108.411 40.5457 108.822 40.2604C108.917 40.197 108.917 40.0702 108.822 40.0385C108.411 39.7849 107.272 39.1509 105.944 39.1509C104.616 39.1826 103.509 39.8483 103.098 40.1336C103.003 40.197 103.003 40.3238 103.098 40.3555C103.509 40.6408 104.647 41.2748 105.975 41.2431Z" fill="#012E67"/>
<path d="M102.876 37.9778C104.078 38.168 105.185 37.6925 105.596 37.5023C105.691 37.4706 105.691 37.3438 105.627 37.2804C105.28 36.9634 104.363 36.2343 103.161 36.0441C101.959 35.8539 100.852 36.3294 100.441 36.5196C100.346 36.5513 100.346 36.6781 100.409 36.7415C100.726 37.0585 101.674 37.7876 102.876 37.9778Z" fill="#012E67"/>
<path d="M105.564 34.364C105.817 35.5687 106.608 36.4563 106.956 36.7733C107.019 36.8367 107.146 36.805 107.177 36.7416C107.335 36.3295 107.715 35.1883 107.462 33.9836C107.209 32.779 106.418 31.8914 106.07 31.5744C106.007 31.511 105.881 31.5427 105.849 31.6061C105.691 32.0499 105.311 33.1911 105.564 34.364Z" fill="#012E67"/>
<path d="M102.686 31.7961C102.876 33.0007 103.635 33.92 103.951 34.2688C104.015 34.3322 104.141 34.3322 104.173 34.2371C104.363 33.8249 104.805 32.7154 104.584 31.5108C104.394 30.3061 103.635 29.3868 103.319 29.0381C103.256 28.9747 103.129 28.9747 103.098 29.0698C102.939 29.4502 102.497 30.5914 102.686 31.7961Z" fill="#012E67"/>
<path d="M100.251 35.0932C101.421 35.4102 102.591 35.0615 103.003 34.9347C103.097 34.903 103.129 34.8079 103.066 34.7128C102.75 34.364 101.927 33.5398 100.726 33.2228C99.5555 32.9058 98.3854 33.2545 97.9742 33.3813C97.8794 33.413 97.8478 33.5081 97.911 33.6032C98.2273 33.9519 99.0811 34.8079 100.251 35.0932Z" fill="#012E67"/>
<path d="M99.429 30.8769C100.346 32.0181 101.58 32.5888 102.054 32.779C102.149 32.8107 102.244 32.7473 102.212 32.6522C102.117 32.1449 101.833 30.8135 100.915 29.6723C99.9983 28.531 98.7649 27.9604 98.2905 27.7702C98.1956 27.7385 98.1007 27.8019 98.1324 27.897C98.2272 28.4042 98.5119 29.7674 99.429 30.8769Z" fill="#012E67"/>
<path d="M131.718 21.4616L124.982 33.1592H123.97L119.037 21.6835L118.752 31.8912L120.491 32.7154V33.0641H115.748V32.7154L117.424 31.8595L117.866 20.2886L116.064 19.4327V19.084H120.27L124.982 30.0208L130.042 21.4299H131.718V21.4616Z" fill="#012E67"/>
<path d="M136.494 28.9113L135.102 31.9229H133.205L133.046 27.8969L131.781 29.799L131.876 31.9229H129.41L136.62 19.6863V19.1157H126.943V23.0784H127.291L128.65 20.2887H133.9L126.69 32.4936V33.0642H136.841V28.9113H136.494Z" fill="#012E67"/>
</svg>
