<svg width="248" height="99" viewBox="0 0 248 99" fill="none" xmlns="http://www.w3.org/2000/svg">
<path d="M33.0125 95.8323H0.0250015V30.4199H89.0188V31.8735H1.475V94.3787H33.0125V95.8323Z" fill="white"/>
<path d="M247.975 95.8323H212.812V94.3787H246.525V31.8735H159.126V30.4199H247.975V95.8323Z" fill="white"/>
<path d="M43.1988 95.6869H39.7913L39.0663 97.3222H38.4137L41.205 91.217H41.8575L44.6488 97.3222H43.96L43.1988 95.6869ZM42.945 95.1418L41.495 91.8712L40.045 95.1418H42.945Z" fill="white"/>
<path d="M53.095 96.7408V98.6668H52.4787V97.2859H47.15V98.6668H46.5338V96.7408H46.8238C47.2225 96.7044 47.5125 96.4137 47.6575 95.7959C47.8025 95.1781 47.9112 94.306 47.9475 93.1794L48.02 91.217H52.1162V96.7771H53.095V96.7408ZM48.3825 95.5415C48.2737 96.1593 48.0925 96.5591 47.8025 96.7408H51.5362V91.7621H48.6363L48.6 93.2521C48.5637 94.1606 48.4912 94.9238 48.3825 95.5415Z" fill="white"/>
<path d="M60.7438 94.6694C60.9613 94.9237 61.07 95.2508 61.07 95.6505C61.07 96.1956 60.8887 96.5954 60.5262 96.8861C60.1637 97.1768 59.62 97.3222 58.895 97.3222H56.2125V91.217H58.75C59.4025 91.217 59.91 91.3624 60.2725 91.6168C60.635 91.8712 60.8162 92.2709 60.8162 92.7797C60.8162 93.1067 60.7438 93.3975 60.5625 93.6518C60.3812 93.8699 60.1275 94.0516 59.8375 94.1969C60.2 94.2333 60.5263 94.415 60.7438 94.6694ZM56.7925 93.9789H58.6412C59.1125 93.9789 59.475 93.8699 59.7287 93.6882C59.9825 93.5065 60.0912 93.2158 60.0912 92.8523C60.0912 92.4889 59.9825 92.1982 59.7287 92.0165C59.475 91.8348 59.1125 91.7258 58.6412 91.7258H56.7925V93.9789ZM60.4537 95.6142C60.4537 94.8511 59.9462 94.4513 58.895 94.4513H56.8287V96.7771H58.895C59.91 96.7771 60.4537 96.4137 60.4537 95.6142Z" fill="white"/>
<path d="M65.4562 96.9589C64.9487 96.7046 64.5863 96.3048 64.2963 95.8324C64.0063 95.36 63.8975 94.8149 63.8975 94.2334C63.8975 93.652 64.0425 93.1069 64.2963 92.6345C64.5863 92.162 64.9487 91.7986 65.4562 91.5079C65.9637 91.2172 66.5075 91.1082 67.0875 91.1082C67.7037 91.1082 68.2475 91.2535 68.7187 91.5079C69.19 91.7623 69.5887 92.162 69.8787 92.6345C70.1687 93.1069 70.3137 93.652 70.3137 94.2334C70.3137 94.8149 70.1687 95.36 69.8787 95.8324C69.5887 96.3048 69.2262 96.6682 68.7187 96.9589C68.2475 97.2133 67.7037 97.3587 67.0875 97.3587C66.5075 97.3587 65.9275 97.2133 65.4562 96.9589ZM68.3925 96.4502C68.7912 96.2321 69.0812 95.9414 69.2987 95.5417C69.5162 95.1419 69.625 94.7058 69.625 94.2334C69.625 93.761 69.5162 93.3249 69.2987 92.9252C69.0812 92.5254 68.7912 92.2347 68.3925 92.0167C67.9937 91.7986 67.5587 91.6896 67.0875 91.6896C66.6162 91.6896 66.1812 91.7986 65.7825 92.0167C65.3837 92.2347 65.0937 92.5254 64.8762 92.9252C64.6587 93.3249 64.55 93.761 64.55 94.2334C64.55 94.7058 64.6587 95.1419 64.8762 95.5417C65.0937 95.9414 65.42 96.2321 65.7825 96.4502C66.1812 96.6682 66.6162 96.7772 67.0875 96.7772C67.5587 96.7772 67.9937 96.6682 68.3925 96.4502Z" fill="white"/>
<path d="M75.57 94.4876H74.1925V97.2858H73.5762V91.1807H74.1925V93.9062H75.57L77.6363 91.1807H78.325L76.0775 94.1605L78.47 97.2858H77.745L75.57 94.4876Z" fill="white"/>
<path d="M85.0312 95.6869H81.6238L80.8988 97.3222H80.2462L83.0375 91.217H83.69L86.4812 97.3222H85.7925L85.0312 95.6869ZM84.8137 95.1418L83.3637 91.8712L81.9137 95.1418H84.8137Z" fill="white"/>
<path d="M93.0425 91.7621H90.9038V97.3222H90.2513V91.7621H88.1125V91.217H93.0425V91.7621Z" fill="white"/>
<path d="M96.8488 96.9589C96.3775 96.7046 95.9788 96.3048 95.725 95.8324C95.435 95.36 95.3262 94.8149 95.3262 94.2334C95.3262 93.652 95.4713 93.1069 95.725 92.6345C96.015 92.162 96.3775 91.7986 96.885 91.5079C97.3563 91.2535 97.9 91.1082 98.5163 91.1082C98.9513 91.1082 99.3863 91.1808 99.785 91.3262C100.184 91.4716 100.51 91.6896 100.764 91.9803L100.365 92.3801C99.8938 91.9076 99.2775 91.6533 98.5525 91.6533C98.0812 91.6533 97.6463 91.7623 97.2475 91.9803C96.8488 92.1984 96.5588 92.4891 96.305 92.8888C96.0875 93.2886 95.9788 93.6883 95.9788 94.1971C95.9788 94.6695 96.0875 95.1056 96.305 95.5053C96.5225 95.9051 96.8488 96.1958 97.2475 96.4138C97.6463 96.6319 98.0812 96.7409 98.5525 96.7409C99.2775 96.7409 99.8938 96.4865 100.365 96.0141L100.764 96.4138C100.51 96.7046 100.184 96.9226 99.785 97.068C99.3863 97.2133 98.9875 97.286 98.5163 97.286C97.8638 97.3587 97.32 97.2133 96.8488 96.9589Z" fill="white"/>
<path d="M107.977 93.8698C108.34 94.1969 108.557 94.6693 108.557 95.2871C108.557 95.9412 108.34 96.45 107.941 96.777C107.543 97.1041 106.962 97.2858 106.201 97.2858H103.772V91.1807H104.425V93.3611H106.346C107.035 93.3974 107.615 93.5428 107.977 93.8698ZM107.47 96.4136C107.76 96.1593 107.905 95.7959 107.905 95.3234C107.905 94.3786 107.325 93.9062 106.165 93.9062H104.425V96.777H106.201C106.745 96.777 107.18 96.668 107.47 96.4136Z" fill="white"/>
<path d="M113.705 94.4876H112.327V97.2858H111.711V91.1807H112.327V93.9062H113.705L115.771 91.1807H116.46L114.212 94.1605L116.605 97.2858H115.88L113.705 94.4876Z" fill="white"/>
<path d="M123.637 96.7407V97.2858H119.324V91.1807H123.492V91.7258H119.976V93.9062H123.13V94.4513H119.976V96.7044H123.637V96.7407Z" fill="white"/>
<path d="M131.866 96.9589C131.359 96.7046 130.996 96.3048 130.706 95.8324C130.416 95.36 130.308 94.8149 130.308 94.2334C130.308 93.652 130.453 93.1069 130.706 92.6345C130.996 92.162 131.359 91.7986 131.866 91.5079C132.374 91.2535 132.918 91.1082 133.498 91.1082C134.078 91.1082 134.658 91.2535 135.129 91.5079C135.6 91.7623 135.999 92.162 136.289 92.6345C136.579 93.1069 136.724 93.652 136.724 94.2334C136.724 94.8149 136.579 95.36 136.289 95.8324C135.999 96.3048 135.636 96.6682 135.129 96.9589C134.658 97.2133 134.114 97.3587 133.498 97.3587C132.881 97.3587 132.338 97.2133 131.866 96.9589ZM134.803 96.4502C135.201 96.2321 135.491 95.9414 135.709 95.5417C135.926 95.1419 136.035 94.7058 136.035 94.2334C136.035 93.761 135.926 93.3249 135.709 92.9252C135.491 92.5254 135.201 92.2347 134.803 92.0167C134.404 91.7986 133.969 91.6896 133.498 91.6896C133.026 91.6896 132.591 91.7986 132.193 92.0167C131.794 92.2347 131.504 92.5254 131.286 92.9252C131.069 93.3249 130.96 93.761 130.96 94.2334C130.96 94.7058 131.069 95.1419 131.286 95.5417C131.504 95.9414 131.83 96.2321 132.193 96.4502C132.591 96.6682 133.026 96.7772 133.498 96.7772C133.969 96.7772 134.404 96.6682 134.803 96.4502Z" fill="white"/>
<path d="M139.986 91.217H144.445V91.7621H140.639V93.7609H142.632C143.357 93.7609 143.901 93.9062 144.264 94.1969C144.626 94.4877 144.807 94.9237 144.807 95.5052C144.807 96.0866 144.59 96.559 144.191 96.8498C143.793 97.1768 143.212 97.3222 142.451 97.3222H139.95V91.217H139.986ZM142.451 96.7771C143.031 96.7771 143.43 96.6681 143.72 96.45C144.01 96.232 144.155 95.9049 144.155 95.5052C144.155 95.0691 144.01 94.7784 143.72 94.5603C143.43 94.3423 142.995 94.2333 142.451 94.2333H140.602V96.7771H142.451Z" fill="white"/>
<path d="M148.07 90.9264C148.142 90.999 148.215 91.1444 148.215 91.2534C148.215 91.3261 148.215 91.3988 148.179 91.4715C148.143 91.5441 148.143 91.6532 148.106 91.7622L147.744 92.9614H147.309L147.599 91.6895C147.49 91.6532 147.418 91.6168 147.381 91.5442C147.309 91.4715 147.309 91.3624 147.309 91.2534C147.309 91.1081 147.345 90.999 147.454 90.9264C147.526 90.8537 147.635 90.781 147.78 90.781C147.889 90.781 147.998 90.8173 148.07 90.9264Z" fill="white"/>
<path d="M152.384 96.9589C151.912 96.7046 151.55 96.3048 151.296 95.8324C151.042 95.36 150.898 94.8149 150.898 94.2334C150.898 93.652 151.042 93.1069 151.296 92.6345C151.55 92.162 151.912 91.7986 152.384 91.5079C152.855 91.2535 153.363 91.1082 153.943 91.1082C154.414 91.1082 154.849 91.1808 155.248 91.3262C155.646 91.4716 155.972 91.6896 156.226 91.9803L155.827 92.3801C155.356 91.9076 154.74 91.6533 153.943 91.6533C153.508 91.6533 153.109 91.7623 152.782 91.944C152.42 92.162 152.13 92.4164 151.913 92.7798C151.695 93.1432 151.586 93.543 151.55 93.979H154.704V94.5241H151.586C151.623 94.9602 151.768 95.3236 151.985 95.6507C152.203 95.9778 152.493 96.2321 152.819 96.4502C153.181 96.6319 153.544 96.7409 153.979 96.7409C154.74 96.7409 155.356 96.4865 155.864 96.0141L156.262 96.4138C156.009 96.7046 155.682 96.9226 155.284 97.068C154.885 97.2133 154.45 97.286 153.979 97.286C153.363 97.3587 152.855 97.2133 152.384 96.9589Z" fill="white"/>
<path d="M164.745 96.7408V98.6668H164.129V97.2859H158.8V98.6668H158.184V96.7408H158.474C158.873 96.7044 159.162 96.4137 159.307 95.7959C159.452 95.1781 159.561 94.306 159.598 93.1794L159.67 91.217H163.766V96.7771H164.745V96.7408ZM159.996 95.5415C159.887 96.1593 159.706 96.5591 159.416 96.7408H163.15V91.7621H160.25L160.214 93.2521C160.214 94.1606 160.141 94.9238 159.996 95.5415Z" fill="white"/>
<path d="M172.901 91.217V97.3222H172.249V94.4877H168.442V97.3222H167.79V91.217H168.442V93.9426H172.249V91.217H172.901Z" fill="white"/>
<path d="M180.586 95.6869H177.179L176.454 97.3222H175.801L178.592 91.217H179.245L182.036 97.3222H181.347L180.586 95.6869ZM180.333 95.1418L178.883 91.8712L177.433 95.1418H180.333Z" fill="white"/>
<path d="M189.975 91.217V97.3222H189.323V94.4877H185.516V97.3222H184.9V91.217H185.552V93.9426H189.359V91.217H189.975Z" fill="white"/>
<path d="M198.856 91.217V97.3222H198.204V94.4877H194.398V97.3222H193.745V91.217H194.398V93.9426H198.204V91.217H198.856Z" fill="white"/>
<path d="M206.976 91.217V97.3222H206.324V95.4688H204.511C204.439 95.4688 204.33 95.4688 204.149 95.4688L202.88 97.3222H202.191L203.569 95.3598C203.134 95.2145 202.771 94.9964 202.554 94.633C202.3 94.306 202.191 93.8699 202.191 93.3975C202.191 92.707 202.409 92.1619 202.844 91.7985C203.279 91.4351 203.859 91.217 204.584 91.217H206.976ZM203.279 94.4877C203.569 94.742 204.004 94.8874 204.547 94.8874H206.324V91.7258H204.62C204.04 91.7258 203.605 91.8712 203.315 92.1255C202.989 92.3799 202.844 92.7797 202.844 93.3248C202.844 93.8335 202.989 94.2333 203.279 94.4877Z" fill="white"/>
<path d="M20.18 63.126V62.8353L21.63 62.1085L21.9925 52.5874L20.47 51.8605V51.5698H24.3487L28.0462 60.1825L31.7437 51.5698H35.4412V51.8605L33.955 52.442L34.245 62.0722L35.5137 62.799V63.0897H30.765V62.799L32.1062 62.1085L31.925 53.7139L27.9375 63.1987H27.0312L23.0075 53.8229L22.79 62.1448L24.2762 62.8353V63.126H20.18Z" fill="white"/>
<path d="M36.8187 63.1262V62.8355L37.9062 62.254L42.4012 51.5337H43.6337L48.0925 62.2177L49.2887 62.8355V63.1262H44.25V62.8355L45.7725 62.2177L44.54 59.1651H40.3712L39.1387 62.2177L40.5887 62.8355V63.1262H36.8187ZM40.77 58.2566H44.1412L42.4375 54.0775L40.77 58.2566Z" fill="white"/>
<path d="M50.5938 63.126V62.8353L52.0437 62.1085V52.5874L50.5938 51.8605V51.5698H55.705V51.8605L54.255 52.5874V62.1085L55.705 62.8353V63.126H50.5938ZM54.255 57.2752L59.04 52.4783L57.735 51.8605V51.5698H61.65V51.8605L60.49 52.333L56.2488 56.4758L61.36 62.3265L62.52 62.799V63.0897H59.2212L54.255 57.2752Z" fill="white"/>
<path d="M69.0088 63.3079C67.8125 63.3079 66.7613 63.0535 65.855 62.5811C64.9488 62.1087 64.2963 61.4182 63.7888 60.5824C63.3175 59.7102 63.0638 58.7654 63.0638 57.6752C63.0638 56.8393 63.245 56.0398 63.5713 55.2767C63.8975 54.5136 64.3688 53.8594 64.9488 53.3143C65.5288 52.7329 66.1813 52.2968 66.9425 51.9697C67.6675 51.6427 68.465 51.4973 69.2988 51.4973C69.8788 51.4973 70.3863 51.5337 70.8213 51.6063C71.22 51.679 71.5825 51.788 71.9087 51.8971C72.235 52.0061 72.5613 52.1514 72.8875 52.3331L73.0325 55.4947H72.7063L71.3288 53.0599C70.9663 52.8056 70.64 52.6239 70.35 52.5148C70.06 52.4058 69.7338 52.3331 69.335 52.3331C68.5738 52.3331 67.885 52.5512 67.305 52.9509C66.6888 53.387 66.2175 53.9685 65.8913 54.6953C65.565 55.4221 65.3838 56.3306 65.3838 57.3117C65.3838 58.3656 65.565 59.2741 65.8913 60.0373C66.2175 60.8004 66.6888 61.3819 67.2688 61.7816C67.8488 62.1813 68.5013 62.3994 69.19 62.3994C69.6975 62.3994 70.1688 62.3267 70.5313 62.1813C70.8938 62.036 71.2563 61.8906 71.5825 61.6726L72.9238 59.5285H73.2138L72.9963 62.3994C72.525 62.6538 71.945 62.8718 71.3288 63.0535C70.6763 63.2352 69.915 63.3079 69.0088 63.3079Z" fill="white"/>
<path d="M75.4612 63.1262V62.8355L76.9112 62.1087V52.5876L75.4612 51.8608V51.57H80.4637V51.8608L79.0862 52.5876V60.11L84.5237 53.3144V52.5512L83.1462 51.8244V51.5337H88.1487V51.8244L86.735 52.5512V62.0723L88.1487 62.7991V63.0899H83.1462V62.7991L84.5237 62.0723V54.6589L79.0862 61.4546V62.1087L80.4637 62.8355V63.1262H75.4612Z" fill="white"/>
<path d="M89.925 63.126V62.8353L91.375 62.1085L91.7375 52.5874L90.215 51.8605V51.5698H94.0937L97.7912 60.1825L101.489 51.5698H105.186V51.8605L103.7 52.442L103.99 62.0722L105.259 62.799V63.0897H100.51V62.799L101.851 62.1085L101.67 53.7139L97.6462 63.1987H96.74L92.7162 53.8229L92.4987 62.1448L93.985 62.8353V63.126H89.925Z" fill="white"/>
<path d="M118.526 57.2752L113.85 63.126H110.696V62.8353L111.929 62.3265L116.569 56.6211L112.4 52.4057L111.095 51.8969V51.6062H115.228V51.8969L113.959 52.5147L118.526 57.2752ZM117.149 63.126V62.8353L118.526 62.1085V52.5874L117.149 51.8605V51.5698H122.115V51.8605L120.738 52.5874V62.1085L122.115 62.8353V63.126H117.149ZM120.738 57.2752L125.305 52.5147L124.036 51.8969V51.6062H128.06V51.8969L126.719 52.4057L122.804 56.4758L127.625 62.3629L128.749 62.8353V63.126H125.486L120.738 57.2752Z" fill="white"/>
<path d="M134.186 62.1814C133.787 62.6902 133.389 62.9809 133.026 63.1263C132.664 63.2716 132.301 63.308 131.975 63.308C131.721 63.308 131.54 63.2716 131.504 63.199C131.431 63.1263 131.395 62.9809 131.395 62.7992V61.6L131.467 61.5273H131.757C132.337 61.5273 132.809 61.4546 133.171 61.2729C133.534 61.0912 133.86 60.8005 134.15 60.4008L129.945 52.5876L128.64 51.8972V51.6064H133.606V51.8972L132.156 52.5513L135.165 58.184H135.419L138.355 52.5149L136.941 51.8972V51.6064H140.639V51.8972L139.587 52.4786L135.89 59.4559C135.636 59.9647 135.346 60.4734 135.02 60.9822C134.73 61.4546 134.44 61.8544 134.186 62.1814Z" fill="white"/>
<path d="M141.763 63.126V62.8353L143.213 62.1085V52.5874L141.763 51.8605V51.5698H147.164C148.541 51.5698 149.629 51.8242 150.462 52.2966C151.296 52.7691 151.695 53.5685 151.695 54.6587C151.695 55.3129 151.477 55.8943 151.042 56.3667C150.607 56.8755 150.028 57.2389 149.266 57.5296C148.505 57.8203 147.671 57.9657 146.729 57.9657H145.388V62.0722L147.091 62.799V63.0897H141.763V63.126ZM145.388 52.5874V57.1299H146.511C147.418 57.1299 148.143 56.9118 148.686 56.4758C149.23 56.0397 149.484 55.5309 149.484 54.8768C149.484 54.0773 149.23 53.4595 148.686 53.1325C148.143 52.8054 147.417 52.5874 146.402 52.5874H145.388Z" fill="white"/>
<path d="M151.622 63.1262V62.8355L152.71 62.254L157.205 51.5337H158.437L162.896 62.2177L164.092 62.8355V63.1262H159.09V62.8355L160.612 62.2177L159.38 59.1651H155.175L153.942 62.2177L155.392 62.8355V63.1262H151.622ZM155.574 58.2566H158.945L157.241 54.0775L155.574 58.2566Z" fill="white"/>
<path d="M165.397 63.126V62.8353L166.847 62.1085V52.5874L165.397 51.8605V51.5698H170.509C171.306 51.5698 172.031 51.6788 172.684 51.8605C173.336 52.0422 173.807 52.333 174.206 52.7327C174.569 53.0961 174.75 53.6049 174.75 54.1863C174.75 54.7678 174.532 55.3129 174.097 55.8216C173.662 56.3304 173.082 56.6575 172.285 56.8755C173.372 57.0209 174.206 57.3479 174.822 57.8567C175.439 58.3654 175.765 58.9832 175.765 59.7827C175.765 60.4368 175.547 60.9819 175.149 61.4907C174.714 61.9995 174.17 62.3992 173.409 62.6899C172.684 62.9807 171.85 63.126 170.907 63.126H165.397ZM169.82 52.5874H169.022V56.7665H169.892C170.69 56.7665 171.306 56.5848 171.741 56.2214C172.176 55.858 172.394 55.3492 172.394 54.7314C172.43 53.2778 171.56 52.5874 169.82 52.5874ZM170.472 57.6386H169.059V62.1812H170.617C171.487 62.1812 172.176 61.9631 172.684 61.527C173.191 61.091 173.445 60.5459 173.445 59.8917C173.445 59.1286 173.191 58.5471 172.684 58.1837C172.104 57.8203 171.379 57.6386 170.472 57.6386Z" fill="white"/>
<path d="M183.16 63.1263V62.8356L184.574 62.1087V52.5876H180.804V53.6415C180.804 55.0224 180.767 56.2216 180.695 57.2392C180.622 58.2567 180.514 59.0925 180.405 59.783C180.296 60.4734 180.115 61.0549 179.897 61.491C179.68 61.9997 179.426 62.3995 179.172 62.6539C178.882 62.9082 178.629 63.0899 178.339 63.1626C178.049 63.2353 177.831 63.308 177.577 63.308C177.324 63.308 177.142 63.2716 177.106 63.199C177.034 63.1263 176.997 62.9809 176.997 62.7992V61.6L177.07 61.5273H177.251C178.157 61.5273 178.774 60.8732 179.136 59.5649C179.499 58.2567 179.68 56.2943 179.68 53.6778V52.624L178.266 51.8972V51.6064H188.235V51.8972L186.785 52.624V62.1451L188.235 62.8719V63.1626H183.16V63.1263Z" fill="white"/>
<path d="M195.412 63.126H190.047V62.8353L191.497 62.1085V52.5874L190.047 51.8605V51.5698H195.485V51.8605L193.672 52.5874V56.2941H195.412C196.391 56.2941 197.261 56.4394 197.986 56.6938C198.711 56.9482 199.291 57.3479 199.726 57.8203C200.161 58.2928 200.342 58.8742 200.342 59.5647C200.342 60.2551 200.125 60.8729 199.726 61.418C199.328 61.9631 198.747 62.3629 197.986 62.6536C197.261 62.9807 196.391 63.126 195.412 63.126ZM195.014 57.2752H193.672V62.1812H195.159C196.137 62.1812 196.862 61.9631 197.334 61.4907C197.841 61.0183 198.059 60.4368 198.059 59.71C198.059 58.8742 197.805 58.2564 197.298 57.8567C196.826 57.4569 196.065 57.2752 195.014 57.2752Z" fill="white"/>
<path d="M208.173 63.3078C207.339 63.3078 206.541 63.1625 205.816 62.8718C205.091 62.581 204.475 62.145 203.931 61.6362C203.388 61.0911 202.989 60.4733 202.699 59.7465C202.409 59.0197 202.264 58.2202 202.264 57.3844C202.264 56.5486 202.409 55.7491 202.699 55.0223C202.989 54.2955 203.424 53.6777 203.931 53.1326C204.475 52.5875 205.091 52.1877 205.816 51.897C206.541 51.6063 207.303 51.4609 208.173 51.4609C209.043 51.4609 209.804 51.6063 210.529 51.897C211.254 52.1877 211.87 52.6238 212.414 53.1326C212.958 53.6777 213.356 54.2955 213.646 55.0223C213.936 55.7491 214.081 56.5486 214.081 57.3844C214.081 58.2202 213.936 59.0197 213.646 59.7465C213.356 60.4733 212.921 61.0911 212.414 61.6362C211.87 62.1813 211.254 62.581 210.529 62.8718C209.804 63.1625 209.006 63.3078 208.173 63.3078ZM208.463 62.3993C209.115 62.3993 209.695 62.2176 210.166 61.8542C210.674 61.4908 211.036 60.9457 211.326 60.2916C211.616 59.6011 211.761 58.838 211.761 57.8932C211.761 56.7666 211.58 55.7854 211.254 54.9496C210.928 54.1138 210.456 53.4597 209.876 52.9872C209.296 52.5148 208.644 52.2968 207.919 52.2968C207.266 52.2968 206.722 52.4785 206.215 52.8419C205.707 53.2053 205.309 53.714 205.019 54.4045C204.729 55.095 204.584 55.8581 204.584 56.8029C204.584 57.9295 204.765 58.9107 205.091 59.7465C205.454 60.5823 205.925 61.2365 206.505 61.7089C207.085 62.1813 207.738 62.3993 208.463 62.3993Z" fill="white"/>
<path d="M216.003 63.126V62.8353L217.453 62.1085V52.5874L216.003 51.8605V51.5698H221.114C221.911 51.5698 222.636 51.6788 223.289 51.8605C223.941 52.0422 224.413 52.333 224.811 52.7327C225.174 53.0961 225.355 53.6049 225.355 54.1863C225.355 54.7678 225.138 55.3129 224.703 55.8216C224.268 56.3304 223.688 56.6575 222.89 56.8755C223.978 57.0209 224.811 57.3479 225.428 57.8567C226.044 58.3654 226.37 58.9832 226.37 59.7827C226.37 60.4368 226.153 60.9819 225.754 61.4907C225.319 61.9995 224.775 62.3992 224.014 62.6899C223.289 62.9807 222.455 63.126 221.513 63.126H216.003ZM220.425 52.5874H219.628V56.7665H220.498C221.295 56.7665 221.911 56.5848 222.346 56.2214C222.781 55.858 222.999 55.3492 222.999 54.7314C223.035 53.2778 222.165 52.5874 220.425 52.5874ZM221.041 57.6386H219.628V62.1812H221.186C222.056 62.1812 222.745 61.9631 223.253 61.527C223.76 61.091 224.014 60.5459 224.014 59.8917C224.014 59.1286 223.76 58.5471 223.253 58.1837C222.709 57.8203 221.984 57.6386 221.041 57.6386Z" fill="white"/>
<path d="M97.175 74.7549V74.6095L97.9 74.2461V69.4856L97.175 69.1222V68.9768H103.229V69.1222L102.504 69.4856V74.2461L103.229 74.6095V74.7549H100.764V74.6095L101.416 74.2461V69.4492H99.0237V74.2461L99.7125 74.6095V74.7549H97.175Z" fill="white"/>
<path d="M105.658 74.7549V74.6095L106.201 74.3188L108.449 68.9404H109.065L111.276 74.2825L111.856 74.6095V74.7549H109.355V74.6095L110.116 74.3188L109.5 72.7925H107.398L106.781 74.3188L107.506 74.6095V74.7549H105.658ZM107.615 72.3201H109.319L108.485 70.2487L107.615 72.3201Z" fill="white"/>
<path d="M114.285 74.7549V74.6095L115.01 74.2461V69.4856L114.285 69.1222V68.9768H117.004C117.693 68.9768 118.236 69.0858 118.635 69.3402C119.034 69.5946 119.251 69.9943 119.251 70.5394C119.251 70.8665 119.143 71.1572 118.925 71.4116C118.708 71.666 118.418 71.8477 118.055 71.993C117.693 72.1384 117.258 72.2111 116.786 72.2111H116.098V74.2825L116.968 74.6459V74.7912H114.285V74.7549ZM116.098 69.4856V71.775H116.641C117.113 71.775 117.475 71.666 117.729 71.4479C117.983 71.2299 118.127 70.9755 118.127 70.6485C118.127 70.2487 117.983 69.958 117.729 69.7763C117.475 69.5946 117.076 69.5219 116.605 69.5219H116.098V69.4856Z" fill="white"/>
<path d="M122.876 74.7549V74.6095L123.782 74.2461V69.4492H122.477L121.825 70.8302H121.68V68.9768H126.973V70.8302H126.827L126.175 69.4492H124.87V74.2461L125.776 74.6095V74.7549H122.876Z" fill="white"/>
<path d="M129.546 74.7549V74.6095L130.271 74.2461V69.4856L129.546 69.1222V68.9768H132.048V69.1222L131.359 69.4856V71.5206H134.005V69.4856L133.316 69.1222V68.9768H135.817V69.1222L135.092 69.4856V74.2461L135.817 74.6095V74.7549H133.316V74.6095L134.005 74.2461V72.0294H131.359V74.2461L132.048 74.6095V74.7549H129.546Z" fill="white"/>
<path d="M138.464 74.7549V74.6095L139.189 74.2461V69.4856L138.464 69.1222V68.9768H143.031V70.5031H142.85L142.234 69.4856H140.24V71.557H141.654L142.125 70.8302H142.27V72.7925H142.125L141.654 72.0657H140.24V74.3188H142.451L143.067 73.0832H143.212V74.7912H138.464V74.7549Z" fill="white"/>
<path d="M146.004 74.7549V74.6095L146.729 74.2461V69.4856L146.004 69.1222V68.9768H148.722C149.411 68.9768 149.955 69.0858 150.354 69.3402C150.753 69.5946 150.97 69.9943 150.97 70.5394C150.97 70.8665 150.861 71.1572 150.644 71.4116C150.426 71.666 150.136 71.8477 149.774 71.993C149.411 72.1384 148.976 72.2111 148.505 72.2111H147.816V74.2825L148.686 74.6459V74.7912H146.004V74.7549ZM147.852 69.4856V71.775H148.396C148.867 71.775 149.23 71.666 149.484 71.4479C149.737 71.2299 149.882 70.9755 149.882 70.6485C149.882 70.2487 149.737 69.958 149.484 69.7763C149.23 69.5946 148.831 69.5219 148.36 69.5219H147.852V69.4856Z" fill="white"/>
<path d="M153.544 74.7549V74.6095L154.269 74.2461V69.4856L153.544 69.1222V68.9768H156.045V69.1222L155.356 69.4856V73.265L158.075 69.8853V69.5219L157.386 69.1585V69.0131H159.888V69.1585L159.163 69.5219V74.2825L159.888 74.6459V74.7912H157.386V74.6459L158.075 74.2825V70.5758L155.356 73.9554V74.2825L156.045 74.6459V74.7912H153.544V74.7549Z" fill="white"/>
<path d="M90.07 74.9003V74.755L90.795 74.3916V69.522L90.07 69.1585V69.0132H92.68V69.1585L91.955 69.522V74.3916L92.68 74.755V74.9003H90.07Z" fill="white"/>
<path d="M119.469 39.3235C119.614 38.4877 119.94 37.6882 120.375 36.925C120.774 36.1619 121.318 35.4714 121.861 34.8173C123.021 33.5454 124.399 32.4552 125.885 31.6194C126.646 31.2196 127.408 30.8199 128.205 30.4928C128.604 30.3475 129.002 30.1658 129.401 30.0204L130.634 29.6207L133.062 28.8575C133.86 28.5668 134.657 28.3124 135.419 27.9854C138.536 26.7498 141.509 25.1145 144.227 23.1521C145.605 22.1709 146.91 21.1171 148.179 19.9905C149.447 18.864 150.644 17.6647 151.767 16.3928C149.701 19.082 147.309 21.5531 144.554 23.5882C143.212 24.6057 141.762 25.5869 140.276 26.4227C138.79 27.2585 137.267 28.0217 135.672 28.6395C134.875 28.9665 134.077 29.2209 133.28 29.5116C132.482 29.766 131.649 30.0204 130.851 30.2384L129.655 30.6018C129.256 30.7109 128.857 30.8926 128.495 31.0379C128.096 31.1833 127.698 31.3287 127.335 31.5104C126.973 31.6921 126.574 31.8738 126.211 32.0555C124.725 32.8186 123.348 33.7998 122.188 34.999C120.919 36.2709 119.94 37.6882 119.469 39.3235Z" fill="white"/>
<path d="M131.286 27.1495C130.38 28.7848 128.821 29.7297 128.169 30.0568C128.06 30.1294 127.879 30.0204 127.879 29.9114C127.806 29.2209 127.77 27.3676 128.676 25.7323C129.583 24.097 131.141 23.1521 131.794 22.825C131.903 22.7524 132.084 22.8614 132.084 22.9704C132.156 23.6609 132.193 25.5142 131.286 27.1495Z" fill="white"/>
<path d="M132.374 34.3446C130.634 33.6541 129.474 32.2369 129.075 31.6554C129.002 31.5464 129.039 31.3647 129.184 31.3284C129.872 31.183 131.685 30.8923 133.425 31.5464C135.165 32.2369 136.325 33.6541 136.724 34.2356C136.796 34.3446 136.76 34.5263 136.615 34.5626C135.926 34.7443 134.114 35.0351 132.374 34.3446Z" fill="white"/>
<path d="M138.065 31.7645C136.398 31.4738 135.129 30.3836 134.658 29.9112C134.549 29.8385 134.585 29.6568 134.694 29.6205C135.274 29.3661 136.869 28.7846 138.536 29.1117C140.204 29.4388 141.473 30.4926 141.944 30.9651C142.053 31.0377 142.016 31.2194 141.908 31.2558C141.328 31.5102 139.733 32.0916 138.065 31.7645Z" fill="white"/>
<path d="M136.289 25.1143C135.672 26.7133 134.331 27.7308 133.824 28.0942C133.715 28.1669 133.57 28.0942 133.534 27.9852C133.389 27.3674 133.135 25.6958 133.787 24.0968C134.44 22.4978 135.745 21.4803 136.252 21.1169C136.361 21.0442 136.506 21.1169 136.542 21.2259C136.687 21.88 136.941 23.5517 136.289 25.1143Z" fill="white"/>
<path d="M140.675 23.1884C140.131 24.7874 138.863 25.8412 138.391 26.241C138.283 26.3136 138.137 26.2773 138.101 26.1319C137.956 25.5142 137.63 23.9152 138.174 22.3162C138.718 20.7172 139.986 19.6634 140.458 19.2636C140.566 19.191 140.711 19.2273 140.748 19.3727C140.893 19.9904 141.219 21.5894 140.675 23.1884Z" fill="white"/>
<path d="M143.539 28.7847C141.944 28.6757 140.603 27.7672 140.131 27.3675C140.022 27.2948 140.059 27.1494 140.168 27.0767C140.675 26.7497 142.125 26.0229 143.72 26.1319C145.315 26.2409 146.656 27.1494 147.128 27.5492C147.236 27.6218 147.2 27.7672 147.091 27.8399C146.584 28.1669 145.17 28.8937 143.539 28.7847Z" fill="white"/>
<path d="M144.808 20.899C144.336 22.3526 143.212 23.3338 142.777 23.6972C142.705 23.7699 142.56 23.7335 142.524 23.6245C142.379 23.0794 142.052 21.6258 142.524 20.1722C142.995 18.7186 144.119 17.7374 144.554 17.374C144.626 17.3013 144.771 17.3377 144.808 17.4467C144.953 17.9918 145.279 19.4817 144.808 20.899Z" fill="white"/>
<path d="M147.635 25.7322C146.113 25.6959 144.844 24.9327 144.373 24.6056C144.264 24.533 144.264 24.3876 144.373 24.3513C144.844 24.0605 146.149 23.3337 147.671 23.3337C149.194 23.3701 150.463 24.1332 150.934 24.4603C151.043 24.533 151.043 24.6783 150.934 24.7147C150.426 25.0417 149.158 25.7685 147.635 25.7322Z" fill="white"/>
<path d="M151.187 21.9889C149.81 22.207 148.541 21.6619 148.07 21.4438C147.961 21.4075 147.961 21.2621 148.034 21.1895C148.432 20.8261 149.484 19.9902 150.861 19.7722C152.239 19.5542 153.508 20.0993 153.979 20.3173C154.088 20.3536 154.087 20.499 154.015 20.5717C153.616 20.9351 152.565 21.7709 151.187 21.9889Z" fill="white"/>
<path d="M148.106 17.8462C147.816 19.2271 146.91 20.2446 146.511 20.6081C146.439 20.6807 146.294 20.6444 146.258 20.5717C146.076 20.0993 145.641 18.791 145.931 17.4101C146.221 16.0292 147.128 15.0117 147.526 14.6483C147.599 14.5756 147.744 14.6119 147.78 14.6846C147.961 15.1934 148.396 16.5016 148.106 17.8462Z" fill="white"/>
<path d="M151.369 14.9027C151.151 16.2836 150.281 17.3375 149.919 17.7372C149.846 17.8099 149.701 17.8099 149.665 17.7009C149.447 17.2285 148.94 15.9565 149.194 14.5756C149.411 13.1947 150.281 12.1408 150.644 11.7411C150.716 11.6684 150.861 11.6684 150.898 11.7774C151.115 12.2135 151.586 13.5218 151.369 14.9027Z" fill="white"/>
<path d="M154.196 18.6822C152.855 19.0456 151.514 18.6459 151.043 18.5005C150.934 18.4642 150.897 18.3552 150.97 18.2461C151.333 17.8464 152.275 16.9016 153.653 16.5381C154.994 16.1747 156.335 16.5745 156.806 16.7198C156.915 16.7562 156.951 16.8652 156.879 16.9742C156.516 17.374 155.538 18.3552 154.196 18.6822Z" fill="white"/>
<path d="M155.139 13.8489C154.088 15.1571 152.674 15.8112 152.13 16.0293C152.021 16.0656 151.912 15.9929 151.949 15.8839C152.057 15.3025 152.384 13.7762 153.435 12.4679C154.486 11.1597 155.9 10.5056 156.444 10.2875C156.553 10.2512 156.661 10.3239 156.625 10.4329C156.516 11.0143 156.154 12.577 155.139 13.8489Z" fill="white"/>
<path d="M128.604 39.3233C128.132 37.688 127.154 36.2708 125.994 35.0715C124.834 33.8723 123.42 32.9275 121.97 32.128C121.607 31.9463 121.209 31.7646 120.846 31.5829C120.484 31.4012 120.085 31.2558 119.686 31.1104C119.287 30.9651 118.925 30.7834 118.526 30.6744L117.33 30.311C116.532 30.0566 115.699 29.8385 114.901 29.5842C114.104 29.2934 113.27 29.039 112.509 28.712C110.914 28.0942 109.391 27.3311 107.905 26.4952C106.419 25.6594 105.005 24.7146 103.627 23.6607C100.909 21.5893 98.48 19.1545 96.4137 16.4653C97.5737 17.7009 98.7337 18.9365 100.002 20.063C101.271 21.1896 102.576 22.2434 103.954 23.2246C106.709 25.187 109.645 26.8223 112.762 28.0579C113.524 28.3849 114.321 28.6393 115.119 28.93L117.547 29.6932L118.78 30.0929C119.179 30.2019 119.577 30.42 119.976 30.5653C120.774 30.8561 121.535 31.2921 122.296 31.6919C123.782 32.5277 125.16 33.6179 126.32 34.8898C126.864 35.5439 127.407 36.2344 127.806 36.9976C128.132 37.688 128.495 38.4875 128.604 39.3233Z" fill="white"/>
<path d="M116.786 27.1495C117.692 28.7848 119.251 29.7297 119.904 30.0568C120.012 30.1294 120.194 30.0204 120.194 29.9114C120.266 29.2209 120.302 27.3676 119.396 25.7323C118.49 24.097 116.931 23.1521 116.279 22.825C116.17 22.7524 115.989 22.8614 115.989 22.9704C115.952 23.6609 115.88 25.5142 116.786 27.1495Z" fill="white"/>
<path d="M115.735 34.3446C117.475 33.6541 118.635 32.2369 119.034 31.6554C119.106 31.5464 119.07 31.3647 118.925 31.3284C118.236 31.183 116.424 30.8923 114.684 31.5464C112.944 32.2369 111.784 33.6541 111.385 34.2356C111.312 34.3446 111.349 34.5263 111.494 34.5626C112.146 34.7443 113.959 35.0351 115.735 34.3446Z" fill="white"/>
<path d="M110.008 31.7645C111.675 31.4738 112.944 30.3836 113.415 29.9112C113.524 29.8385 113.488 29.6568 113.379 29.6205C112.799 29.3661 111.204 28.7846 109.536 29.1117C107.869 29.4024 106.6 30.4926 106.129 30.9651C106.02 31.0377 106.056 31.2194 106.165 31.2558C106.781 31.5102 108.34 32.0916 110.008 31.7645Z" fill="white"/>
<path d="M111.784 25.1143C112.4 26.7133 113.741 27.7308 114.249 28.0942C114.357 28.1669 114.502 28.0942 114.539 27.9852C114.684 27.3674 114.937 25.6958 114.285 24.0968C113.669 22.4978 112.327 21.4803 111.82 21.1169C111.711 21.0442 111.566 21.1169 111.53 21.2259C111.421 21.88 111.167 23.5517 111.784 25.1143Z" fill="white"/>
<path d="M107.434 23.1884C107.977 24.7874 109.246 25.8412 109.718 26.241C109.826 26.3136 109.971 26.2773 110.007 26.1319C110.152 25.5142 110.479 23.9152 109.935 22.3162C109.391 20.7172 108.122 19.6634 107.651 19.2636C107.542 19.191 107.397 19.2273 107.361 19.3727C107.18 19.9904 106.854 21.5894 107.434 23.1884Z" fill="white"/>
<path d="M104.534 28.7847C106.129 28.6757 107.47 27.7672 107.941 27.3675C108.05 27.2948 108.014 27.1494 107.905 27.0767C107.398 26.7497 105.948 26.0229 104.353 26.1319C102.757 26.2409 101.416 27.1494 100.945 27.5492C100.836 27.6218 100.872 27.7672 100.981 27.8399C101.525 28.1669 102.939 28.8937 104.534 28.7847Z" fill="white"/>
<path d="M103.301 20.899C103.772 22.3526 104.896 23.3338 105.331 23.6972C105.404 23.7699 105.549 23.7335 105.585 23.6245C105.73 23.0794 106.056 21.6258 105.585 20.1722C105.114 18.7186 103.99 17.7374 103.555 17.374C103.482 17.3013 103.337 17.3377 103.301 17.4467C103.12 17.9918 102.83 19.4817 103.301 20.899Z" fill="white"/>
<path d="M100.474 25.7322C101.996 25.6959 103.265 24.9327 103.736 24.6056C103.845 24.533 103.845 24.3876 103.736 24.3513C103.265 24.0605 101.96 23.3337 100.438 23.3337C98.915 23.3701 97.6463 24.1332 97.175 24.4603C97.0663 24.533 97.0663 24.6783 97.175 24.7147C97.6463 25.0417 98.9513 25.7685 100.474 25.7322Z" fill="white"/>
<path d="M96.9212 21.9889C98.2988 22.207 99.5675 21.6619 100.039 21.4438C100.148 21.4075 100.148 21.2621 100.075 21.1895C99.6763 20.8261 98.625 19.9902 97.2475 19.7722C95.87 19.5542 94.6013 20.0993 94.13 20.3173C94.0213 20.3536 94.0212 20.499 94.0937 20.5717C94.4563 20.9351 95.5437 21.7709 96.9212 21.9889Z" fill="white"/>
<path d="M100.002 17.8462C100.292 19.2271 101.199 20.2446 101.598 20.6081C101.67 20.6807 101.815 20.6444 101.851 20.5717C102.032 20.0993 102.467 18.791 102.177 17.4101C101.887 16.0292 100.981 15.0117 100.582 14.6483C100.51 14.5756 100.365 14.6119 100.329 14.6846C100.148 15.1934 99.7125 16.5016 100.002 17.8462Z" fill="white"/>
<path d="M96.7038 14.9027C96.9213 16.2836 97.7913 17.3375 98.1538 17.7372C98.2263 17.8099 98.3713 17.8099 98.4075 17.7009C98.625 17.2285 99.1325 15.9565 98.8788 14.5756C98.6613 13.1947 97.7913 12.1408 97.4288 11.7411C97.3563 11.6684 97.2113 11.6684 97.175 11.7774C96.9937 12.2135 96.4862 13.5218 96.7038 14.9027Z" fill="white"/>
<path d="M93.9125 18.6822C95.2537 19.0456 96.595 18.6459 97.0662 18.5005C97.175 18.4642 97.2112 18.3552 97.1387 18.2461C96.7762 17.8464 95.8337 16.9016 94.4562 16.5381C93.115 16.1747 91.7737 16.5745 91.3025 16.7198C91.1937 16.7562 91.1575 16.8652 91.23 16.9742C91.5925 17.374 92.5713 18.3552 93.9125 18.6822Z" fill="white"/>
<path d="M92.97 13.8489C94.0213 15.1571 95.435 15.8112 95.9788 16.0293C96.0875 16.0656 96.1963 15.9929 96.16 15.8839C96.0513 15.3025 95.725 13.7762 94.6738 12.4679C93.6225 11.1597 92.2087 10.5056 91.665 10.2875C91.5562 10.2512 91.4475 10.3239 91.4837 10.4329C91.5925 11.0143 91.9187 12.577 92.97 13.8489Z" fill="white"/>
<path d="M129.981 3.05584L122.26 16.4654H121.1L115.445 3.31022L115.119 15.0118L117.113 15.9566V16.3564H111.675V15.9566L113.596 14.9754L114.104 1.71125L112.038 0.730067V0.330322H116.859L122.26 12.8677L128.06 3.0195H129.981V3.05584Z" fill="white"/>
<path d="M135.455 11.5958L133.86 15.0481H131.685L131.504 10.4329L130.054 12.6134L130.163 15.0481H127.335L135.6 1.02082V0.366699H124.507V4.90923H124.906L126.465 1.71129H132.483L124.218 15.7023V16.3564H135.854V11.5958H135.455Z" fill="white"/>
</svg>
