<svg width="24" height="24" viewBox="0 0 24 24" fill="none" xmlns="http://www.w3.org/2000/svg">
<path d="M17.5031 0H6.49688C2.91563 0 0 2.91563 0 6.49688V17.5031C0 21.0844 2.91563 24 6.49688 24H17.5031C21.0844 24 24 21.0844 24 17.5031V6.49688C24 2.91563 21.0844 0 17.5031 0ZM22.5938 17.5031C22.5938 20.3109 20.3109 22.5938 17.5031 22.5938H6.49688C3.68906 22.5938 1.40625 20.3109 1.40625 17.5031V6.49688C1.40625 3.68906 3.68906 1.40625 6.49688 1.40625H17.5031C20.3109 1.40625 22.5938 3.68906 22.5938 6.49688V17.5031Z" fill="white"/>
<path d="M12 5.4375C8.38125 5.4375 5.4375 8.38125 5.4375 12C5.4375 15.6187 8.38125 18.5625 12 18.5625C15.6187 18.5625 18.5625 15.6187 18.5625 12C18.5625 8.38125 15.6187 5.4375 12 5.4375ZM12 17.1562C9.15938 17.1562 6.84375 14.8453 6.84375 12C6.84375 9.15938 9.15469 6.84375 12 6.84375C14.8406 6.84375 17.1562 9.15469 17.1562 12C17.1562 14.8406 14.8406 17.1562 12 17.1562Z" fill="white"/>
<path d="M18.7172 3.10791C17.6485 3.10791 16.7766 3.97978 16.7766 5.04853C16.7766 6.11729 17.6485 6.98916 18.7172 6.98916C19.786 6.98916 20.6579 6.11729 20.6579 5.04853C20.6579 3.97978 19.7907 3.10791 18.7172 3.10791ZM18.7172 5.57822C18.4219 5.57822 18.1829 5.33916 18.1829 5.04385C18.1829 4.74854 18.4219 4.50947 18.7172 4.50947C19.0125 4.50947 19.2516 4.74854 19.2516 5.04385C19.2516 5.33916 19.0125 5.57822 18.7172 5.57822Z" fill="white"/>
</svg>
