<svg width="25" height="17" viewBox="0 0 25 17" fill="none" xmlns="http://www.w3.org/2000/svg">
<path d="M24.8474 8.13171L17.0349 0.319226C16.8314 0.115759 16.5018 0.115759 16.2984 0.319226C16.0949 0.522692 16.0949 0.852282 16.2984 1.0557L23.2218 7.97912H0.520849C0.232959 7.97912 0 8.21208 0 8.49997C0 8.78786 0.232959 9.02082 0.520849 9.02082H23.2218L16.2984 15.9442C16.0949 16.1477 16.0949 16.4773 16.2984 16.6807C16.4001 16.7824 16.5334 16.8333 16.6667 16.8333C16.7999 16.8333 16.9332 16.7824 17.0349 16.6807L24.8474 8.86819C25.0508 8.66477 25.0508 8.33518 24.8474 8.13171Z" fill="#070B0C"/>
</svg>
