<svg width="62" height="72" viewBox="0 0 62 72" fill="none" xmlns="http://www.w3.org/2000/svg">
<path d="M58.0783 57.7971C57.4428 56.5863 55.5699 57.5688 56.2051 58.7799L57.9834 62.1696L50.455 62.7557C49.5838 62.8236 48.7748 63.2566 48.2351 63.9438L43.5736 69.8811L37.568 58.4328C38.7261 57.9691 39.9878 57.9801 41.2144 57.9732C45.1994 57.9504 47.342 56.7032 49.3497 53.2544C50.0049 52.1289 50.6546 51.0173 51.7178 50.226L53.5753 53.767C54.1927 54.9438 56.0821 53.9922 55.4485 52.7842L53.5124 49.0936C56.8924 46.8402 58.2107 45.1622 58.2345 40.9622C58.2472 38.7686 58.6429 37.2108 59.7408 35.299C61.757 31.7885 61.7595 29.2288 59.7408 25.7139C58.648 23.8108 58.2471 22.2581 58.2345 20.0504C58.2115 16.0656 56.9621 13.9251 53.513 11.9194C51.6068 10.8112 50.4649 9.67471 49.3497 7.7585C47.3444 4.31432 45.2046 3.06261 41.2144 3.03962C39.0198 3.02721 37.4601 2.63136 35.5469 1.53407C28.1879 -2.68531 26.8921 3.14906 20.2901 3.03962C16.3053 3.06247 14.1626 4.30967 12.1548 7.7585C11.0454 9.66414 9.90822 10.8047 7.99159 11.9192C0.78014 16.0694 5.09471 20.1329 1.76363 25.7141C-0.252284 29.2248 -0.254963 31.7839 1.76349 35.299C5.21331 41.3532 0.591311 44.1345 7.99201 49.0939L1.64136 61.2002C0.941469 62.5067 1.87546 64.1633 3.32488 64.2762L10.8854 64.8648C11.1681 64.8868 11.4307 65.0273 11.6057 65.2503L16.2871 71.2127C17.2071 72.3844 19.0903 72.197 19.785 70.9003L25.8183 59.399C29.4896 61.5033 32.0151 61.5009 35.6861 59.399L41.7238 70.9085C42.4185 72.2053 44.2867 72.3978 45.2175 71.2127L49.8987 65.2503C50.0737 65.0273 50.3363 64.8868 50.6189 64.8648L58.1794 64.2762C59.6175 64.1641 60.5635 62.5077 59.8674 61.2083L58.0783 57.7971ZM17.9311 69.8811L13.2696 63.944C12.7301 63.2566 11.921 62.8237 11.0497 62.7557L3.52147 62.1696L9.7868 50.226C10.8501 51.0173 11.4997 52.1287 12.155 53.2542C14.16 56.6985 16.3 57.9501 20.2903 57.9731C21.517 57.98 22.7786 57.969 23.9367 58.4327L17.9311 69.8811ZM30.7523 59.0872C27.36 58.8226 26.133 55.8101 20.3023 55.8578C17.0524 55.8391 15.6186 54.9996 13.9831 52.1899C12.6937 49.9753 11.2801 48.5585 9.05503 47.2649C6.24531 45.6313 5.40383 44.1993 5.38522 40.9502C5.37069 38.3999 4.87345 36.4665 3.59804 34.2454C1.94992 31.3755 1.94992 29.6374 3.59804 26.7674C4.86865 24.5545 5.37055 22.6255 5.38522 20.0625C5.40383 16.8133 6.24531 15.3816 9.05503 13.748C11.2705 12.4598 12.6882 11.0471 13.9832 8.8228C15.6186 6.01321 17.0527 5.17357 20.3024 5.15495C27.2654 5.40231 28.3758 -0.268193 34.4946 3.36905C36.7086 4.63895 38.6392 5.14029 41.2026 5.15495C44.4523 5.17357 45.8862 6.01321 47.5218 8.8228C50.775 14.9505 56.207 13.0975 56.1196 20.0625C56.1341 22.6128 56.6314 24.5462 57.9069 26.7673C59.5551 29.6377 59.5551 31.3753 57.9068 34.2456C56.6362 36.4583 56.1343 38.3874 56.1196 40.95C56.1013 44.1993 55.2595 45.6313 52.4499 47.2647C50.317 48.5049 48.764 50.0555 47.5218 52.1899C45.8863 54.9995 44.4523 55.8391 41.2026 55.8578C38.6516 55.8723 36.7168 56.3691 34.4947 57.6438C33.2003 58.3861 31.9779 59.0872 30.7523 59.0872Z" fill="#012E67"/>
<path d="M51.471 30.5066C51.6124 13.7419 31.9245 3.76245 18.5119 13.8103C17.4096 14.6197 18.6612 16.3243 19.7637 15.5155C31.8059 6.49335 49.4853 15.4588 49.3555 30.5067C48.4205 55.1355 13.0812 55.1313 12.1489 30.5063C12.1489 26.3744 13.4837 22.4589 16.009 19.1832C16.844 18.1002 15.1688 16.809 14.3337 17.8917C3.83245 31.2434 13.7704 51.3559 30.7524 51.2133C42.1766 51.2134 51.471 41.9243 51.471 30.5066Z" fill="#012E67"/>
<path d="M24.5017 40.4899C25.7677 41.7553 27.9163 41.7581 29.1851 40.4899L42.7102 26.973C43.9765 25.7074 43.9794 23.559 42.7102 22.2906C41.4187 20.9998 39.3179 21.0001 38.0267 22.2906L26.8434 33.4672L22.9295 29.5556C21.6383 28.2656 19.5373 28.2654 18.2461 29.5558C16.9799 30.8213 16.9769 32.9698 18.2461 34.2381L24.5017 40.4899ZM19.7414 31.0522C20.3056 30.5937 20.87 30.5937 21.4342 31.052L26.0957 35.7107C26.5088 36.1236 27.1781 36.1236 27.5911 35.7107L39.5221 23.7869C39.9812 23.3281 40.7561 23.3285 41.2151 23.787C41.6822 24.3504 41.682 24.9136 41.215 25.4769L27.6898 38.9938C27.1256 39.4609 26.5614 39.4609 25.9971 38.9938L19.7415 32.742C19.2745 32.1787 19.2745 31.6154 19.7414 31.0522Z" fill="#012E67"/>
<path d="M30.7523 7.5759C32.1134 7.5759 32.1157 5.46057 30.7523 5.46057C29.3912 5.46057 29.389 7.5759 30.7523 7.5759Z" fill="#012E67"/>
<path d="M18.7511 10.7899C20.1123 10.7899 20.1145 8.67456 18.7511 8.67456C17.39 8.67456 17.3877 10.7899 18.7511 10.7899Z" fill="#012E67"/>
<path d="M9.96561 19.5698C11.3268 19.5698 11.329 17.4545 9.96561 17.4545C8.60447 17.4545 8.60221 19.5698 9.96561 19.5698Z" fill="#012E67"/>
<path d="M6.74992 29.4486C5.38877 29.4486 5.38651 31.5639 6.74992 31.5639C8.11106 31.5639 8.11332 29.4486 6.74992 29.4486Z" fill="#012E67"/>
<path d="M9.96561 41.4429C8.60447 41.4429 8.60221 43.5582 9.96561 43.5582C11.3268 43.5582 11.329 41.4429 9.96561 41.4429Z" fill="#012E67"/>
<path d="M18.7511 50.2231C17.39 50.2231 17.3877 52.3385 18.7511 52.3385C20.1121 52.3385 20.1144 50.2231 18.7511 50.2231Z" fill="#012E67"/>
<path d="M30.7523 53.437C29.3912 53.437 29.3889 55.5523 30.7523 55.5523C32.1134 55.5523 32.1157 53.437 30.7523 53.437Z" fill="#012E67"/>
<path d="M42.7535 50.2231C41.3924 50.2231 41.3901 52.3385 42.7535 52.3385C44.1147 52.3385 44.1169 50.2231 42.7535 50.2231Z" fill="#012E67"/>
<path d="M51.5391 41.4429C50.178 41.4429 50.1757 43.5582 51.5391 43.5582C52.9002 43.5582 52.9025 41.4429 51.5391 41.4429Z" fill="#012E67"/>
<path d="M54.7548 31.5639C56.1159 31.5639 56.1182 29.4486 54.7548 29.4486C53.3937 29.4486 53.3914 31.5639 54.7548 31.5639Z" fill="#012E67"/>
<path d="M51.5391 19.5698C52.9002 19.5698 52.9025 17.4545 51.5391 17.4545C50.178 17.4545 50.1757 19.5698 51.5391 19.5698Z" fill="#012E67"/>
<path d="M42.7535 10.7899C44.1147 10.7899 44.1169 8.67456 42.7535 8.67456C41.3924 8.67456 41.3903 10.7899 42.7535 10.7899Z" fill="#012E67"/>
</svg>
