<svg width="31" height="31" viewBox="0 0 31 31" fill="none" xmlns="http://www.w3.org/2000/svg">
<path d="M1.9375 5.8125H29.0625C30.1325 5.8125 31 6.68002 31 7.75C31 8.81998 30.1325 9.6875 29.0625 9.6875H1.9375C0.867523 9.6875 0 8.81998 0 7.75C0 6.68002 0.867523 5.8125 1.9375 5.8125Z" fill="white"/>
<path d="M1.9375 13.5625H29.0625C30.1325 13.5625 31 14.43 31 15.5C31 16.57 30.1325 17.4375 29.0625 17.4375H1.9375C0.867523 17.4375 0 16.57 0 15.5C0 14.43 0.867523 13.5625 1.9375 13.5625Z" fill="white"/>
<path d="M1.9375 21.3125H29.0625C30.1325 21.3125 31 22.18 31 23.25C31 24.32 30.1325 25.1875 29.0625 25.1875H1.9375C0.867523 25.1875 0 24.32 0 23.25C0 22.18 0.867523 21.3125 1.9375 21.3125Z" fill="white"/>
</svg>
