<svg width="13" height="24" viewBox="0 0 13 24" fill="none" xmlns="http://www.w3.org/2000/svg">
<path d="M9.43123 1.0856L11.8129 1.09032V3.4928H10.3985C7.72023 3.4928 7.72023 5.55072 7.72023 6.22568V8.50072V9.58633H8.76964H11.6715V12.2673H8.76964H7.72023V13.3529V22.5569H5.00088V13.3529V12.2673H3.95147H1.55607V9.58633H3.95147H5.00088V8.50072V5.81976C5.00088 4.37544 5.41152 3.17184 6.1963 2.34584C6.97195 1.51984 8.08981 1.0856 9.43123 1.0856ZM9.43123 0C6.10048 0 3.95147 2.28448 3.95147 5.81504V8.496H0.972045C0.716536 8.496 0.506653 8.71312 0.506653 8.97744V12.862C0.506653 13.1263 0.716536 13.3434 0.972045 13.3434H3.95147V23.1469C3.95147 23.4112 4.16135 23.6283 4.41686 23.6283H8.30425C8.55976 23.6283 8.76964 23.4112 8.76964 23.1469V13.3482H12.251C12.5065 13.3482 12.7163 13.131 12.7163 12.8667V8.98216C12.7163 8.85472 12.6662 8.73201 12.5795 8.64232C12.4928 8.55264 12.3741 8.50072 12.251 8.50072H8.76508V6.22568C8.76508 5.13064 9.01603 4.5784 10.394 4.5784H12.3878C12.6433 4.5784 12.8532 4.36128 12.8532 4.09696V0.48616C12.8532 0.22184 12.6433 0.00472 12.3878 0.00472L9.43123 0Z" fill="white"/>
</svg>
