<svg width="27" height="19" viewBox="0 0 27 19" fill="none" xmlns="http://www.w3.org/2000/svg">
<path d="M24.627 0.0078125H2.37305C1.06191 0.0078125 0 1.07632 0 2.38086V16.6191C0 17.9314 1.06972 18.9922 2.37305 18.9922H24.627C25.9271 18.9922 27 17.9359 27 16.6191V2.38086C27 1.07864 25.9423 0.0078125 24.627 0.0078125ZM24.2946 1.58984C23.8098 2.0721 15.4661 10.3719 15.178 10.6584C14.7298 11.1067 14.1339 11.3535 13.5 11.3535C12.8661 11.3535 12.2702 11.1066 11.8205 10.6569C11.6268 10.4642 3.37516 2.25609 2.70538 1.58984H24.2946ZM1.58203 16.2971V2.70386L8.41841 9.50422L1.58203 16.2971ZM2.70638 17.4102L9.54007 10.6199L10.7033 11.7771C11.4504 12.5241 12.4436 12.9355 13.5 12.9355C14.5564 12.9355 15.5496 12.5241 16.2952 11.7785L17.4599 10.6199L24.2936 17.4102H2.70638ZM25.418 16.2971L18.5816 9.50422L25.418 2.70386V16.2971Z" fill="white"/>
</svg>
